<svg width="16" height="16" viewBox="0 0 16 16" fill="none" xmlns="http://www.w3.org/2000/svg">
<path d="M4.00016 6.66665C5.47292 6.66665 6.66683 5.47274 6.66683 3.99998C6.66683 2.52722 5.47292 1.33331 4.00016 1.33331C2.5274 1.33331 1.3335 2.52722 1.3335 3.99998C1.3335 5.47274 2.5274 6.66665 4.00016 6.66665Z" stroke="black" stroke-width="1.4"/>
<path d="M12.0002 6.66665C13.4729 6.66665 14.6668 5.47274 14.6668 3.99998C14.6668 2.52722 13.4729 1.33331 12.0002 1.33331C10.5274 1.33331 9.3335 2.52722 9.3335 3.99998C9.3335 5.47274 10.5274 6.66665 12.0002 6.66665Z" stroke="black" stroke-width="1.4"/>
<path d="M4.00016 14.6666C5.47292 14.6666 6.66683 13.4727 6.66683 12C6.66683 10.5272 5.47292 9.33331 4.00016 9.33331C2.5274 9.33331 1.3335 10.5272 1.3335 12C1.3335 13.4727 2.5274 14.6666 4.00016 14.6666Z" stroke="black" stroke-width="1.4"/>
<path d="M12.0002 14.6666C13.4729 14.6666 14.6668 13.4727 14.6668 12C14.6668 10.5272 13.4729 9.33331 12.0002 9.33331C10.5274 9.33331 9.3335 10.5272 9.3335 12C9.3335 13.4727 10.5274 14.6666 12.0002 14.6666Z" stroke="black" stroke-width="1.4"/>
</svg>
