<svg width="16" height="16" viewBox="0 0 16 16" fill="none" xmlns="http://www.w3.org/2000/svg">
<path d="M3.99999 6.66665C5.47275 6.66665 6.66666 5.47274 6.66666 3.99998C6.66666 2.52722 5.47275 1.33331 3.99999 1.33331C2.52724 1.33331 1.33333 2.52722 1.33333 3.99998C1.33333 5.47274 2.52724 6.66665 3.99999 6.66665Z" stroke="#F7F9FC" stroke-width="1.4"/>
<path d="M12 6.66665C13.4728 6.66665 14.6667 5.47274 14.6667 3.99998C14.6667 2.52722 13.4728 1.33331 12 1.33331C10.5272 1.33331 9.33333 2.52722 9.33333 3.99998C9.33333 5.47274 10.5272 6.66665 12 6.66665Z" stroke="#F7F9FC" stroke-width="1.4"/>
<path d="M3.99999 14.6666C5.47275 14.6666 6.66666 13.4727 6.66666 12C6.66666 10.5272 5.47275 9.33331 3.99999 9.33331C2.52724 9.33331 1.33333 10.5272 1.33333 12C1.33333 13.4727 2.52724 14.6666 3.99999 14.6666Z" stroke="#F7F9FC" stroke-width="1.4"/>
<path d="M12 14.6666C13.4728 14.6666 14.6667 13.4727 14.6667 12C14.6667 10.5272 13.4728 9.33331 12 9.33331C10.5272 9.33331 9.33333 10.5272 9.33333 12C9.33333 13.4727 10.5272 14.6666 12 14.6666Z" stroke="#F7F9FC" stroke-width="1.4"/>
</svg>
