<svg width="16" height="16" viewBox="0 0 16 16" fill="none" xmlns="http://www.w3.org/2000/svg">
<path d="M13.6667 12V13.0874C13.6667 14.192 12.7713 15.0874 11.6667 15.0874H4.33342C3.22885 15.0874 2.33341 14.192 2.33341 13.0874V12M1.33341 10.5C1.33341 11.4204 2.07961 12.1666 3.00008 12.1666C3.92055 12.1666 4.66675 11.4204 4.66675 10.5C4.66675 11.4204 5.41294 12.1666 6.33342 12.1666C7.25388 12.1666 8.00008 11.4204 8.00008 10.5C8.00008 11.4204 8.74628 12.1666 9.66675 12.1666C10.5872 12.1666 11.3334 11.4204 11.3334 10.5C11.3334 11.4204 12.0796 12.1666 13.0001 12.1666C13.9205 12.1666 14.6667 11.4204 14.6667 10.5M1.33325 6.33331H14.6666V8.83331H1.33325V6.33331ZM2.33325 6.33331C2.33325 3.57189 4.57183 1.33331 7.33325 1.33331H8.66659C11.428 1.33331 13.6666 3.57189 13.6666 6.33331H2.33325Z" stroke="#4C5464" stroke-width="1.4"/>
</svg>
