<svg width="20" height="21" viewBox="0 0 20 21" fill="none" xmlns="http://www.w3.org/2000/svg">
<path d="M3.46021 11.4341L3.26618 12.2102L4.81841 12.5982L5.01244 11.8221L3.46021 11.4341ZM5.428 6.86145V6.06145H4.80338L4.65188 6.66742L5.428 6.86145ZM14.5718 6.86145L15.3479 6.66742L15.1964 6.06145H14.5718V6.86145ZM14.9874 11.8221L15.1814 12.5982L16.7336 12.2102L16.5396 11.4341L14.9874 11.8221ZM2.98878 18.5347H3.78878V16.9347H2.98878V18.5347ZM0.938965 17.7347H0.138965V18.5347H0.938965V17.7347ZM0.938965 11.8665V11.0665H0.138965V11.8665H0.938965ZM19.0611 11.8665H19.8611V11.0665H19.0611V11.8665ZM19.0611 17.7347V18.5347H19.8611V17.7347H19.0611ZM17.0415 16.9347H16.2415V18.5347H17.0415V16.9347ZM7.50586 16.9347H6.70586V18.5347H7.50586V16.9347ZM12.5068 18.5347H13.3068V16.9347H12.5068V18.5347ZM5.01244 11.8221L6.20411 7.05548L4.65188 6.66742L3.46021 11.4341L5.01244 11.8221ZM5.428 7.66145H14.5718V6.06145H5.428V7.66145ZM13.7957 7.05548L14.9874 11.8221L16.5396 11.4341L15.3479 6.66742L13.7957 7.05548ZM2.98878 16.9347H0.938965V18.5347H2.98878V16.9347ZM1.73896 17.7347V11.8665H0.138965V17.7347H1.73896ZM0.938965 12.6665H19.0611V11.0665H0.938965V12.6665ZM18.2611 11.8665V17.7347H19.8611V11.8665H18.2611ZM19.0611 16.9347H17.0415V18.5347H19.0611V16.9347ZM7.50586 18.5347H12.5068V16.9347H7.50586V18.5347ZM6.70803 17.735C6.70803 18.5441 6.05212 19.2 5.24303 19.2V20.8C6.93578 20.8 8.30803 19.4277 8.30803 17.735H6.70803ZM5.24303 19.2C4.43393 19.2 3.77803 18.5441 3.77803 17.735H2.17803C2.17803 19.4277 3.55027 20.8 5.24303 20.8V19.2ZM3.77803 17.735C3.77803 16.9259 4.43393 16.27 5.24303 16.27V14.67C3.55027 14.67 2.17803 16.0422 2.17803 17.735H3.77803ZM5.24303 16.27C6.05212 16.27 6.70803 16.9259 6.70803 17.735H8.30803C8.30803 16.0422 6.93578 14.67 5.24303 14.67V16.27ZM16.2222 17.735C16.2222 18.5441 15.5663 19.2 14.7572 19.2V20.8C16.4499 20.8 17.8222 19.4277 17.8222 17.735H16.2222ZM14.7572 19.2C13.9481 19.2 13.2922 18.5441 13.2922 17.735H11.6922C11.6922 19.4277 13.0644 20.8 14.7572 20.8V19.2ZM13.2922 17.735C13.2922 16.9259 13.9481 16.27 14.7572 16.27V14.67C13.0644 14.67 11.6922 16.0422 11.6922 17.735H13.2922ZM14.7572 16.27C15.5663 16.27 16.2222 16.9259 16.2222 17.735H17.8222C17.8222 16.0422 16.4499 14.67 14.7572 14.67V16.27ZM9.2 0.966675V4.00001H10.8V0.966675H9.2ZM14.7446 1.92241L12.7446 3.95574L13.8853 5.07772L15.8853 3.04439L14.7446 1.92241ZM4.11472 3.04439L6.11472 5.07772L7.2554 3.95574L5.2554 1.92241L4.11472 3.04439Z" fill="#686E80"/>
</svg>
