<svg width="16" height="23" viewBox="0 0 16 23" fill="none" xmlns="http://www.w3.org/2000/svg">
<path d="M14.1519 10.3556C15.3922 11.5959 15.3922 13.6069 14.1519 14.8472L14.1422 14.8568L7.9991 21L1.85526 14.8562L1.84624 14.8472C0.607242 13.6082 0.607242 11.5994 1.84624 10.3604C3.08523 9.1214 5.09404 9.1214 6.333 10.3604C6.3892 10.4166 6.4429 10.4743 6.494 10.5336L7.9991 12.0386L9.4489 10.5888C9.5149 10.5085 9.5853 10.4306 9.6603 10.3556C10.9006 9.1153 12.9116 9.1153 14.1519 10.3556Z" stroke="#686E80" stroke-width="1.6"/>
<path d="M7.999 7C9.65586 7 10.999 5.65685 10.999 4C10.999 2.34315 9.65586 1 7.999 1C6.34215 1 4.999 2.34315 4.999 4C4.999 5.65685 6.34215 7 7.999 7Z" stroke="#686E80" stroke-width="1.6"/>
</svg>
