<svg width="24" height="22" viewBox="0 0 24 22" fill="none" xmlns="http://www.w3.org/2000/svg">
<path d="M18.501 0.760254V14.0108M3.47451 21.8712V15.8148H1.74609V10.8496C2.92971 9.9008 4.43215 9.3333 6.06714 9.3333C7.70214 9.3333 9.20457 9.9008 10.3882 10.8496V15.8148H8.65977V21.8712M18.5009 14.2158C17.41 14.2158 16.4075 14.6755 15.6177 15.4441L14.794 20.9999H22.2078L21.384 15.4441C20.5943 14.6755 19.5918 14.2158 18.5009 14.2158ZM8.91797 3.851C8.91797 5.42557 7.64154 6.702 6.06697 6.702C4.49241 6.702 3.21597 5.42557 3.21597 3.851C3.21597 2.27644 4.49241 1 6.06697 1C7.64154 1 8.91797 2.27644 8.91797 3.851Z" stroke="#343846" stroke-width="1.6"/>
</svg>
