<svg width="16" height="16" viewBox="0 0 16 16" fill="none" xmlns="http://www.w3.org/2000/svg"><path d="M2.667 1.329 L 2.667 2.018 3.109 2.034 C 3.353 2.043,3.560 2.058,3.569 2.067 C 3.579 2.077,3.491 2.171,3.373 2.275 C 2.572 2.989,2.044 3.599,1.681 4.227 C 1.181 5.094,0.853 6.018,0.702 6.987 C 0.636 7.414,0.637 8.509,0.704 8.997 C 0.880 10.281,1.435 11.560,2.262 12.587 C 2.518 12.905,3.116 13.505,3.413 13.743 C 4.520 14.627,5.806 15.163,7.173 15.308 C 7.602 15.353,8.649 15.345,9.000 15.293 C 10.259 15.108,11.422 14.625,12.424 13.872 C 12.800 13.590,13.424 12.988,13.715 12.627 C 14.476 11.682,15.060 10.398,15.251 9.249 C 15.495 7.784,15.317 6.377,14.716 5.016 C 14.368 4.230,13.902 3.538,13.295 2.911 C 12.680 2.276,12.096 1.848,11.283 1.436 C 10.221 0.897,9.341 0.694,7.873 0.649 L 7.307 0.632 7.307 1.329 L 7.307 2.027 7.433 2.027 C 7.503 2.027,7.764 2.039,8.013 2.054 C 9.266 2.127,9.759 2.244,10.613 2.670 C 11.327 3.025,11.806 3.371,12.298 3.889 C 12.769 4.384,13.032 4.770,13.363 5.453 C 13.819 6.396,13.940 7.015,13.912 8.253 C 13.899 8.800,13.887 8.939,13.830 9.207 C 13.637 10.102,13.214 10.996,12.638 11.720 C 11.696 12.906,10.332 13.683,8.800 13.908 C 8.367 13.971,7.333 13.950,6.947 13.869 C 5.644 13.598,4.582 13.026,3.719 12.130 C 2.876 11.256,2.315 10.111,2.117 8.864 C 2.062 8.512,2.055 7.703,2.104 7.267 C 2.214 6.293,2.589 5.342,3.208 4.467 C 3.502 4.051,4.438 3.148,4.577 3.147 C 4.620 3.147,4.639 3.305,4.640 3.673 L 4.640 4.000 5.333 4.000 L 6.027 4.000 6.027 2.320 L 6.027 0.640 4.347 0.640 L 2.667 0.640 2.667 1.329 " fill="#222838" stroke="none" fill-rule="evenodd"></path></svg>