<svg width="33" height="33" viewBox="0 0 33 33" fill="none" xmlns="http://www.w3.org/2000/svg"><path d="M7.840 0.113 C 7.490 0.172,6.868 0.482,6.518 0.773 C 6.053 1.158,2.624 4.532,1.588 5.624 C 0.540 6.728,0.339 7.027,0.138 7.782 C 0.023 8.212,0.022 9.107,0.136 9.543 C 0.360 10.402,0.719 10.827,4.105 14.245 L 6.093 16.253 3.893 18.475 C 0.789 21.611,0.466 21.988,0.184 22.803 C 0.057 23.171,0.034 23.331,0.032 23.843 C 0.030 24.384,0.048 24.498,0.201 24.929 C 0.295 25.194,0.456 25.550,0.557 25.719 C 0.953 26.376,5.998 31.432,6.780 31.955 C 7.537 32.462,8.491 32.613,9.512 32.388 C 9.835 32.318,10.241 32.110,10.615 31.827 C 11.317 31.295,30.696 11.905,31.539 10.891 C 31.777 10.604,32.044 10.218,32.130 10.032 C 32.406 9.444,32.460 8.303,32.246 7.617 C 32.087 7.111,31.859 6.742,31.344 6.160 C 30.566 5.282,26.601 1.339,26.070 0.917 C 25.149 0.183,24.502 -0.014,23.390 0.099 C 22.619 0.177,22.262 0.314,21.736 0.731 C 21.503 0.916,20.168 2.204,18.770 3.594 L 16.227 6.121 13.812 3.727 C 11.004 0.944,10.696 0.667,10.086 0.378 C 9.458 0.081,8.624 -0.018,7.840 0.113 M10.428 5.404 C 14.441 9.437,14.949 10.028,15.678 11.523 C 16.519 13.247,16.883 15.183,16.731 17.120 C 16.616 18.589,16.325 19.668,15.692 20.968 C 14.988 22.417,14.680 22.785,11.200 26.355 C 10.128 27.453,9.112 28.488,8.942 28.654 L 8.633 28.956 6.091 26.413 L 3.548 23.870 5.368 22.041 C 7.744 19.654,8.844 18.502,9.097 18.133 C 9.438 17.639,9.579 17.176,9.610 16.445 C 9.644 15.664,9.577 15.286,9.309 14.750 C 9.033 14.196,8.650 13.775,5.893 10.994 L 3.582 8.662 6.095 6.146 C 7.476 4.762,8.620 3.630,8.635 3.630 C 8.651 3.630,9.457 4.428,10.428 5.404 M27.166 6.950 L 28.840 8.628 27.898 9.608 C 27.381 10.147,25.483 12.060,23.681 13.860 L 20.405 17.132 20.405 16.445 C 20.404 14.126,19.907 12.009,18.830 9.740 L 18.479 9.002 18.850 8.612 C 19.054 8.398,20.241 7.186,21.489 5.918 L 23.756 3.614 24.624 4.443 C 25.102 4.900,26.246 6.028,27.166 6.950 " fill="#8940FD" stroke="none" fill-rule="evenodd"></path></svg>