<svg width="14" height="16" viewBox="0 0 14 16" fill="none" xmlns="http://www.w3.org/2000/svg">
<path d="M1 8.66667L0.46852 8.21111L0.3 8.40772V8.66667H1ZM3 1V0.3H1.69204L2.41756 1.38829L3 1ZM11 1L11.5824 1.38829L12.308 0.3H11V1ZM13 8.66667H13.7V8.40772L13.5315 8.21111L13 8.66667ZM8.02753 9.74227L7.84367 10.4177L7.84372 10.4177L8.02753 9.74227ZM5.97253 9.18287L5.78857 9.85826L5.78867 9.85829L5.97253 9.18287ZM5.5 8.59487H4.8V8.59488L5.5 8.59487ZM6.3 7.56667V8.26667H7.7V7.56667H6.3ZM7.7 6.66667V5.96667H6.3V6.66667H7.7ZM6.3 12.6666V13.3666H7.7V12.6666H6.3ZM7.7 11.7666V11.0666H6.3V11.7666H7.7ZM1.53148 9.12222L5.53148 4.45555L4.46852 3.54445L0.46852 8.21111L1.53148 9.12222ZM5.58244 3.61171L3.58244 0.61171L2.41756 1.38829L4.41756 4.38829L5.58244 3.61171ZM3 1.7H11V0.3H3V1.7ZM10.4176 0.61171L8.41756 3.61171L9.58244 4.38829L11.5824 1.38829L10.4176 0.61171ZM8.46852 4.45555L12.4685 9.12222L13.5315 8.21111L9.53148 3.54445L8.46852 4.45555ZM12.3 8.66667V11.3333H13.7V8.66667H12.3ZM12.3 11.3333C12.3 12.7877 11.121 13.9667 9.66667 13.9667V15.3667C11.8942 15.3667 13.7 13.5609 13.7 11.3333H12.3ZM9.66667 13.9667H4.33333V15.3667H9.66667V13.9667ZM4.33333 13.9667C2.87899 13.9667 1.7 12.7877 1.7 11.3333H0.3C0.3 13.5609 2.10579 15.3667 4.33333 15.3667V13.9667ZM1.7 11.3333V8.66667H0.3V11.3333H1.7ZM5 4.7H9V3.3H5V4.7ZM4.8 10.7163V11.1542H6.2V10.7163H4.8ZM4.8 11.1542C4.8 11.9238 5.45347 12.4667 6.15627 12.4667V11.0667C6.15283 11.0667 6.15933 11.0658 6.16983 11.0756C6.18117 11.0862 6.2 11.1138 6.2 11.1542H4.8ZM6.15627 12.4667H7.84373V11.0667H6.15627V12.4667ZM7.84373 12.4667C8.54607 12.4667 9.2 11.9245 9.2 11.1545H7.8C7.8 11.114 7.81891 11.0862 7.83034 11.0756C7.84091 11.0657 7.84737 11.0667 7.84373 11.0667V12.4667ZM9.2 11.1545V10.3302H7.8V11.1545H9.2ZM9.2 10.3302C9.2 9.71402 8.76801 9.21832 8.21135 9.06683L7.84372 10.4177C7.84317 10.4176 7.83389 10.4146 7.82311 10.4012C7.81192 10.3873 7.8 10.3623 7.8 10.3302H9.2ZM8.21139 9.06684L6.15639 8.50744L5.78867 9.85829L7.84367 10.4177L8.21139 9.06684ZM6.1565 8.50747C6.1565 8.50747 6.15654 8.50748 6.15662 8.50751C6.1567 8.50753 6.15682 8.50757 6.15697 8.50763C6.15728 8.50774 6.15772 8.50791 6.15828 8.50816C6.1594 8.50866 6.16095 8.50946 6.16281 8.51067C6.16648 8.51307 6.17152 8.51717 6.17688 8.52384C6.18807 8.53776 6.2 8.56279 6.2 8.59485L4.8 8.59488C4.80002 9.21128 5.23221 9.70672 5.78857 9.85826L6.1565 8.50747ZM6.2 8.59487V8.1792H4.8V8.59487H6.2ZM6.2 8.1792C6.2 8.21964 6.18113 8.24731 6.16981 8.25787C6.15932 8.26766 6.15283 8.26673 6.15627 8.26673V6.86673C5.45352 6.86673 4.8 7.40959 4.8 8.1792H6.2ZM6.15627 8.26673H7.84373V6.86673H6.15627V8.26673ZM7.84373 8.26673C7.84717 8.26673 7.84068 8.26766 7.83019 8.25787C7.81887 8.24731 7.8 8.21964 7.8 8.1792H9.2C9.2 7.40959 8.54648 6.86673 7.84373 6.86673V8.26673ZM7.8 8.1792V8.61733H9.2V8.1792H7.8ZM7.7 7.56667V6.66667H6.3V7.56667H7.7ZM7.7 12.6666V11.7666H6.3V12.6666H7.7Z" fill="#222838"/>
</svg>
