<svg width="22" height="22" viewBox="0 0 22 22" fill="none" xmlns="http://www.w3.org/2000/svg">
<path d="M14.83 15.9457V21H9.7792V17.5699L7.61914 15.3523M1 21V14.2812L3.71875 8.5L6.625 11H10.6562M6.1627 5.87911C7.51003 5.87911 8.60225 4.78688 8.60225 3.43955C8.60225 2.09223 7.51003 1 6.1627 1C4.81537 1 3.72314 2.09223 3.72314 3.43955C3.72314 4.78688 4.81537 5.87911 6.1627 5.87911ZM19.0446 20.9999C20.1245 20.9999 20.9999 20.1245 20.9999 19.0446C20.9999 17.9648 20.1245 17.0894 19.0446 17.0894C17.9648 17.0894 17.0894 17.9648 17.0894 19.0446C17.0894 20.1245 17.9648 20.9999 19.0446 20.9999Z" stroke="black" stroke-width="1.6"/>
</svg>
