<svg width="24" height="19" viewBox="0 0 24 19" fill="none" xmlns="http://www.w3.org/2000/svg">
<path d="M3 11C4.10457 11 5 10.1046 5 9C5 7.89543 4.10457 7 3 7C1.89543 7 1 7.89543 1 9C1 10.1046 1.89543 11 3 11Z" stroke="#686E80" stroke-width="1.6" stroke-linecap="round" stroke-linejoin="round"/>
<path d="M8 5C9.10457 5 10 4.10457 10 3C10 1.89543 9.10457 1 8 1C6.89543 1 6 1.89543 6 3C6 4.10457 6.89543 5 8 5Z" stroke="#686E80" stroke-width="1.6" stroke-linecap="round" stroke-linejoin="round"/>
<path d="M16 5C17.1046 5 18 4.10457 18 3C18 1.89543 17.1046 1 16 1C14.8954 1 14 1.89543 14 3C14 4.10457 14.8954 5 16 5Z" stroke="#686E80" stroke-width="1.6" stroke-linecap="round" stroke-linejoin="round"/>
<path d="M21 11C22.1046 11 23 10.1046 23 9C23 7.89543 22.1046 7 21 7C19.8954 7 19 7.89543 19 9C19 10.1046 19.8954 11 21 11Z" stroke="#686E80" stroke-width="1.6" stroke-linecap="round" stroke-linejoin="round"/>
<path d="M17 14.3636C17 16.8727 14.3 18 12 18C9.7 18 7 16.8727 7 14.3636C7 11.8545 8.66667 8 12 8C15.3333 8 17 11.8545 17 14.3636Z" stroke="#686E80" stroke-width="1.6" stroke-linecap="round" stroke-linejoin="round"/>
</svg>
