<svg width="16" height="14" viewBox="0 0 16 14" fill="none" xmlns="http://www.w3.org/2000/svg"><path d="M0.640 6.000 L 0.640 11.040 1.333 11.040 L 2.027 11.040 2.027 6.707 L 2.027 2.373 7.693 2.373 L 13.360 2.373 13.360 1.667 L 13.360 0.960 7.000 0.960 L 0.640 0.960 0.640 6.000 M2.640 8.000 L 2.640 13.040 9.000 13.040 L 15.360 13.040 15.360 8.000 L 15.360 2.960 9.000 2.960 L 2.640 2.960 2.640 8.000 M13.973 6.513 L 13.973 8.653 12.653 7.333 L 11.333 6.013 8.527 8.820 L 5.720 11.627 4.873 11.627 L 4.027 11.627 4.027 8.000 L 4.027 4.373 9.000 4.373 L 13.973 4.373 13.973 6.513 M5.040 6.333 L 5.040 7.280 6.000 7.280 L 6.960 7.280 6.960 6.333 L 6.960 5.387 6.000 5.387 L 5.040 5.387 5.040 6.333 M12.660 9.313 L 13.973 10.626 13.973 11.127 L 13.973 11.627 10.833 11.627 L 7.693 11.627 9.507 9.813 C 10.504 8.816,11.326 8.000,11.333 8.000 C 11.340 8.000,11.938 8.591,12.660 9.313 " fill="#222838" stroke="none" fill-rule="evenodd"></path></svg>