<svg width="16" height="14" viewBox="0 0 16 14" fill="none" xmlns="http://www.w3.org/2000/svg">
<path d="M14.6666 12.3334H8.63325C8.65512 12.2256 8.66659 12.1142 8.66659 12C8.66659 11.0796 7.92039 10.3334 6.99992 10.3334C6.07945 10.3334 5.33325 11.0796 5.33325 12C5.33325 12.1142 5.34473 12.2256 5.36659 12.3334H1.33325M14.6666 12.3334C14.6666 7.67862 12.2814 3.58102 8.66659 1.19604M14.6666 12.3334H1.33325M8.66659 1.19604L6.12066 5.0626C6.82045 5.26031 7.33325 5.90362 7.33325 6.66669C7.33325 7.58715 6.58706 8.33335 5.66659 8.33335C5.14439 8.33335 4.67828 8.09315 4.37269 7.71729L1.33325 12.3334M8.66659 1.19604L1.33325 12.3334M11.9999 12.3334C11.9999 8.60962 10.0918 5.33149 7.19992 3.42351" stroke="#686E80" stroke-width="1.4"/>
</svg>
