<svg width="14" height="16" viewBox="0 0 14 16" fill="none" xmlns="http://www.w3.org/2000/svg">
<path d="M1 1.33331V0.633313H0.3V1.33331H1ZM1 14.3248H0.3V15.8722L1.46218 14.8505L1 14.3248ZM3.33333 12.2735L3.83453 11.7848L3.37044 11.3089L2.87116 11.7478L3.33333 12.2735ZM5.66667 14.6666L5.16547 15.1553L5.66667 15.6694L6.16786 15.1553L5.66667 14.6666ZM8 12.2735L8.46218 11.7478L7.96289 11.3089L7.4988 11.7848L8 12.2735ZM10.3333 14.3248L9.87116 14.8505L11.0333 15.8722V14.3248H10.3333ZM13 6.66665V7.36665H13.7V6.66665H13ZM13 1.33331H13.7V0.633313H13V1.33331ZM6.6942 6.90885L6.51033 7.58427L6.51039 7.58428L6.6942 6.90885ZM4.63917 6.34942L4.82303 5.674H4.82303L4.63917 6.34942ZM4.16667 5.76145H3.46667V5.76146L4.16667 5.76145ZM4.96667 4.73331V5.43331H6.36667V4.73331H4.96667ZM6.36667 3.83331V3.13331H4.96667V3.83331H6.36667ZM4.96667 9.83331V10.5333H6.36667V9.83331H4.96667ZM6.36667 8.93331V8.23331H4.96667V8.93331H6.36667ZM0.3 1.33331V14.3248H1.7V1.33331H0.3ZM1.46218 14.8505L3.79551 12.7992L2.87116 11.7478L0.537823 13.799L1.46218 14.8505ZM2.83214 12.7622L5.16547 15.1553L6.16786 14.178L3.83453 11.7848L2.83214 12.7622ZM6.16786 15.1553L8.5012 12.7622L7.4988 11.7848L5.16547 14.178L6.16786 15.1553ZM7.53782 12.7992L9.87116 14.8505L10.7955 13.799L8.46218 11.7478L7.53782 12.7992ZM11.0333 14.3248V3.33331H9.63333V14.3248H11.0333ZM10.3333 7.36665H13V5.96665H10.3333V7.36665ZM13.7 6.66665V1.33331H12.3V6.66665H13.7ZM3.46667 7.88291V8.32078H4.86667V7.88291H3.46667ZM3.46667 8.32078C3.46667 9.09029 4.12009 9.63331 4.82291 9.63331V8.23331C4.81956 8.23331 4.82606 8.23241 4.83652 8.24218C4.84781 8.25271 4.86667 8.28034 4.86667 8.32078H3.46667ZM4.82291 9.63331H6.5104V8.23331H4.82291V9.63331ZM6.5104 9.63331C7.21279 9.63331 7.86667 9.09106 7.86667 8.32105H6.46667C6.46667 8.28062 6.48555 8.25284 6.49699 8.24217C6.50756 8.23231 6.51403 8.23331 6.5104 8.23331V9.63331ZM7.86667 8.32105V7.49678H6.46667V8.32105H7.86667ZM7.86667 7.49678C7.86667 6.8806 7.43467 6.3849 6.87801 6.23341L6.51039 7.58428C6.50983 7.58413 6.50056 7.58121 6.48978 7.56779C6.47858 7.55386 6.46667 7.52884 6.46667 7.49678H7.86667ZM6.87807 6.23343L4.82303 5.674L4.4553 7.02484L6.51033 7.58427L6.87807 6.23343ZM4.82303 5.674C4.82355 5.67414 4.8328 5.67705 4.84356 5.69044C4.85475 5.70436 4.86667 5.72937 4.86667 5.76143L3.46667 5.76146C3.46668 6.3777 3.89874 6.87333 4.4553 7.02484L4.82303 5.674ZM4.86667 5.76145V5.34576H3.46667V5.76145H4.86667ZM4.86667 5.34576C4.86667 5.3862 4.8478 5.41387 4.83648 5.42443C4.82599 5.43423 4.81949 5.4333 4.82291 5.4333V4.0333C4.1202 4.0333 3.46667 4.57613 3.46667 5.34576H4.86667ZM4.82291 5.4333H6.5104V4.0333H4.82291V5.4333ZM6.5104 5.4333C6.51382 5.4333 6.50733 5.43423 6.49684 5.42444C6.48552 5.41387 6.46667 5.38622 6.46667 5.3458H7.86667C7.86667 4.57621 7.21319 4.0333 6.5104 4.0333V5.4333ZM6.46667 5.3458V5.78388H7.86667V5.3458H6.46667ZM6.36667 4.73331V3.83331H4.96667V4.73331H6.36667ZM6.36667 9.83331V8.93331H4.96667V9.83331H6.36667ZM13 0.633313H1V2.03331H13V0.633313Z" fill="#343846"/>
</svg>
