<svg width="16" height="14" viewBox="0 0 16 14" fill="none" xmlns="http://www.w3.org/2000/svg">
<path d="M1.33325 4.66669C1.33325 3.00983 2.6764 1.66669 4.33325 1.66669H11.3333C13.1742 1.66669 14.6666 3.15907 14.6666 5.00002V5.66669M1.33325 4.66669C1.33325 6.32355 2.6764 7.66669 4.33325 7.66669H5.99992L7.99992 9.66669H10.6666C12.8757 9.66669 14.6666 7.87582 14.6666 5.66669M1.33325 4.66669V7.66669C1.33325 9.50762 2.82564 11 4.66659 11H5.33325L7.33325 13H11.3333C13.1742 13 14.6666 11.5076 14.6666 9.66669V5.66669M4.58293 4.24969H5.0836V4.75036H4.58293V4.24969Z" stroke="#686E80" stroke-width="1.4"/>
</svg>
