<svg width="24" height="22" viewBox="0 0 24 22" fill="none" xmlns="http://www.w3.org/2000/svg">
<path d="M6.821 6.702C8.39556 6.702 9.672 5.42556 9.672 3.851C9.672 2.27644 8.39556 1 6.821 1C5.24644 1 3.97 2.27644 3.97 3.851C3.97 5.42556 5.24644 6.702 6.821 6.702Z" stroke="#343846" stroke-width="1.6"/>
<path d="M2 9.2058L4.50002 19.7006C5.82959 20.7665 7.81255 20.7665 9.14212 19.7006L11.6421 9.2058H2Z" stroke="#343846" stroke-width="1.6"/>
<path d="M17.321 6.702C18.8956 6.702 20.172 5.42556 20.172 3.851C20.172 2.27644 18.8956 1 17.321 1C15.7464 1 14.47 2.27644 14.47 3.851C14.47 5.42556 15.7464 6.702 17.321 6.702Z" stroke="#343846" stroke-width="1.6"/>
<path d="M12.5 20.5L15 10.0052C16.3296 8.93935 18.3126 8.93935 19.6421 10.0052L22.1421 20.5H12.5Z" stroke="#343846" stroke-width="1.6"/>
</svg>
