<svg width="24" height="22" viewBox="0 0 24 22" fill="none" xmlns="http://www.w3.org/2000/svg">
<path d="M17.2 15V15.8H18.8V15H17.2ZM18 13.9076H18.8V13.5544L18.539 13.3164L18 13.9076ZM2.00004 13.9076L1.46108 13.3164L1.20004 13.5544V13.9076H2.00004ZM1.20004 15V15.8H2.80004V15H1.20004ZM7.79661 3.12445V2.32445H6.19661V3.12445H7.79661ZM6.19661 11.0762V11.8762H7.79661V11.0762H6.19661ZM9.97513 6.03161V6.83161H11.5751V6.03161H9.97513ZM10.3458 2.53433L10.9029 3.10848L12.0512 1.9943L11.4941 1.42015L10.3458 2.53433ZM2.49913 1.42015L1.94203 1.9943L3.09033 3.10848L3.64743 2.53433L2.49913 1.42015ZM2.4178 6.03161V6.83161H4.0178V6.03161H2.4178ZM18.8 15V13.9076H17.2V15H18.8ZM18.539 13.3164C16.2628 11.2413 13.1901 10.0868 10 10.0868V11.6868C12.8111 11.6868 15.4939 12.7055 17.4611 14.4988L18.539 13.3164ZM10 10.0868C6.80994 10.0868 3.73731 11.2413 1.46108 13.3164L2.53899 14.4988C4.50622 12.7055 7.18895 11.6868 10 11.6868V10.0868ZM1.20004 13.9076V15H2.80004V13.9076H1.20004ZM6.19661 3.12445V11.0762H7.79661V3.12445H6.19661ZM8.33209 20.2001C6.7484 20.2001 5.46458 18.9163 5.46458 17.3326H3.86458C3.86458 19.7999 5.86475 21.8001 8.33209 21.8001V20.2001ZM15.667 20.2001C14.0834 20.2001 12.7995 18.9163 12.7995 17.3326H11.1995C11.1995 19.7999 13.1997 21.8001 15.667 21.8001V20.2001ZM23.0025 20.2001C21.4189 20.2001 20.135 18.9163 20.135 17.3326H18.535C18.535 19.7999 20.5352 21.8001 23.0025 21.8001V20.2001ZM0.99707 21.8001C3.4644 21.8001 5.46458 19.7999 5.46458 17.3326H3.86458C3.86458 18.9163 2.58075 20.2001 0.99707 20.2001V21.8001ZM8.33209 21.8001C10.7994 21.8001 12.7995 19.7999 12.7995 17.3326H11.1995C11.1995 18.9163 9.91573 20.2001 8.33209 20.2001V21.8001ZM15.667 21.8001C18.1342 21.8001 20.135 19.8001 20.135 17.3326H18.535C18.535 18.9161 17.2508 20.2001 15.667 20.2001V21.8001ZM19.3354 6.57612C20.8819 6.57612 22.1354 5.32251 22.1354 3.77612H20.5354C20.5354 4.43887 19.9982 4.97612 19.3354 4.97612V6.57612ZM22.1354 3.77612C22.1354 2.22973 20.8819 0.976119 19.3354 0.976119V2.57612C19.9982 2.57612 20.5354 3.11337 20.5354 3.77612H22.1354ZM19.3354 0.976119C17.7891 0.976119 16.5354 2.2297 16.5354 3.77612H18.1354C18.1354 3.1134 18.6727 2.57612 19.3354 2.57612V0.976119ZM16.5354 3.77612C16.5354 5.32254 17.7891 6.57612 19.3354 6.57612V4.97612C18.6727 4.97612 18.1354 4.43884 18.1354 3.77612H16.5354ZM11.5751 6.03161C11.5751 4.54638 10.3711 3.34233 8.88589 3.34233V4.94233C9.48745 4.94233 9.97513 5.43 9.97513 6.03161H11.5751ZM8.88589 3.34233C7.40064 3.34233 6.19661 4.54636 6.19661 6.03161H7.79661C7.79661 5.43002 8.28429 4.94233 8.88589 4.94233V3.34233ZM7.79661 3.56754C7.79661 2.74797 8.461 2.08357 9.28058 2.08357V0.483569C7.57735 0.483569 6.19661 1.86431 6.19661 3.56754H7.79661ZM9.28058 2.08357C9.6986 2.08357 10.0751 2.25537 10.3458 2.53433L11.4941 1.42015C10.9346 0.843489 10.1489 0.483569 9.28058 0.483569V2.08357ZM7.79661 3.56754C7.79661 1.86431 6.41586 0.483569 4.71264 0.483569V2.08357C5.53221 2.08357 6.19661 2.74797 6.19661 3.56754H7.79661ZM4.71264 0.483569C3.84431 0.483569 3.05865 0.843486 2.49913 1.42015L3.64743 2.53433C3.9181 2.25537 4.2946 2.08357 4.71264 2.08357V0.483569ZM7.79661 6.03161C7.79661 4.54622 6.59219 3.34233 5.10708 3.34233V4.94233C5.70881 4.94233 6.19661 5.43016 6.19661 6.03161H7.79661ZM5.10708 3.34233C3.62183 3.34233 2.4178 4.54636 2.4178 6.03161H4.0178C4.0178 5.43002 4.50548 4.94233 5.10708 4.94233V3.34233Z" fill="#686E80"/>
</svg>
