<svg width="33" height="33" viewBox="0 0 33 33" fill="none" xmlns="http://www.w3.org/2000/svg">
<path d="M31.3792 6.12133L26.3245 1.05071C24.9303 -0.347836 22.6639 -0.347836 21.2698 1.05071L16.2151 6.12133L11.1568 1.05071C9.76268 -0.347836 7.49629 -0.347836 6.10214 1.05071L1.04745 6.12133C-0.346707 7.51988 -0.346707 9.79341 1.04745 11.192L6.10214 16.2626L1.04745 21.3332C-0.346707 22.7318 -0.346707 25.0053 1.04745 26.4038L6.10214 31.4745C7.49629 32.873 9.76268 32.873 11.1568 31.4745L31.3792 11.1884C32.7733 9.78983 32.7733 7.51629 31.3792 6.11775V6.12133ZM8.62949 28.9427L3.57479 23.8721L8.62949 18.8015C10.0236 17.4029 10.0236 15.1294 8.62949 13.7309L3.57479 8.66023L8.62949 3.58961L13.6842 8.66023C17.8738 12.863 17.8738 19.6729 13.6842 23.8757L8.62949 28.9463V28.9427ZM20.3725 17.1627C20.5477 14.3441 19.9007 11.486 18.4243 8.9758L23.7971 3.58602L28.8518 8.65665L20.3725 17.1627Z" fill="#8940FD"/>
</svg>
