<svg width="24" height="23" viewBox="0 0 24 23" fill="none" xmlns="http://www.w3.org/2000/svg">
<path d="M11.783 14.591L7.47965 10.2877M7.47965 10.2877C6.6986 9.5067 6.6986 8.24037 7.47965 7.45932L8.63139 6.30757L14.7025 12.3786M7.47965 10.2877L13.1395 15.94M7.47965 10.2877L6.32798 11.4393C5.54693 12.2204 5.54693 13.4867 6.32798 14.2677L14.0603 22M15.5995 13.2702L11.4613 9.1358C10.6796 8.35484 10.6793 7.08801 11.4606 6.30671L12.6118 5.1556L18.5009 11.0447L18.364 8.23186C18.3128 7.17853 19.1252 6.36621 20.1785 6.41747H21.2882L22.4995 11.7077C23.1262 13.9755 22.5663 16.2937 21.018 17.842L19.6578 19.2022M5.32408 7.50024L4.1314 6.30757L2.97965 7.45932C2.1986 8.24037 2.1986 9.5067 2.97965 10.2877M2.97965 10.2877L2.99481 10.3029M2.97965 10.2877L4.19217 11.5M2.97965 10.2877L1.82798 11.4393C1.04693 12.2204 1.04693 13.4867 1.82798 14.2677L9.56024 22M6.99958 0V2.25M2.9997 2.40007L4.99945 3.6001M10.9996 2.3999L8.99962 3.5999" stroke="#343846" stroke-width="1.6"/>
</svg>
