<svg width="16" height="16" viewBox="0 0 16 16" fill="none" xmlns="http://www.w3.org/2000/svg">
<path d="M8.00005 12.6154C10.5491 12.6154 12.6155 10.549 12.6155 7.99998M8.00005 12.6154C5.45107 12.6154 3.38469 10.549 3.38469 7.99998M8.00005 12.6154L7.99992 14.6666M12.6155 7.99998C12.6155 5.45096 10.5491 3.38458 8.00005 3.38458M12.6155 7.99998H14.6665M8.00005 3.38458C5.45107 3.38458 3.38469 5.45096 3.38469 7.99998M8.00005 3.38458L7.99992 1.33331M3.38469 7.99998H1.33325M7.99992 6.79098V6.79098C7.33221 6.79098 6.79092 7.33227 6.79092 7.99998V7.99998C6.79092 8.66769 7.33221 9.20898 7.99992 9.20898V9.20898C8.66763 9.20898 9.20892 8.66769 9.20892 7.99998V7.99998C9.20892 7.33227 8.66763 6.79098 7.99992 6.79098Z" stroke="#343846" stroke-width="1.4" stroke-linecap="square"/>
</svg>
