<svg width="16" height="16" viewBox="0 0 16 16" fill="none" xmlns="http://www.w3.org/2000/svg">
<path d="M5.33331 1.33325H6.03331V0.633252H5.33331V1.33325ZM7.99998 0.633252H7.29998V2.03325H7.99998V0.633252ZM5.01715 2.83106L5.62308 2.48055L4.92206 1.2687L4.31614 1.61921L5.01715 2.83106ZM2.66665 2.03325H5.33331V0.633252H2.66665V2.03325ZM4.63331 1.33325V3.99992H6.03331V1.33325H4.63331ZM7.99998 2.03325C11.2952 2.03325 13.9666 4.70462 13.9666 7.99992H15.3666C15.3666 3.93142 12.0684 0.633252 7.99998 0.633252V2.03325ZM13.9666 7.99992C13.9666 11.2952 11.2952 13.9666 7.99998 13.9666V15.3666C12.0684 15.3666 15.3666 12.0684 15.3666 7.99992H13.9666ZM7.99998 13.9666C4.70468 13.9666 2.03331 11.2952 2.03331 7.99992H0.633313C0.633313 12.0684 3.93148 15.3666 7.99998 15.3666V13.9666ZM2.03331 7.99992C2.03331 5.79229 3.23189 3.86378 5.01715 2.83106L4.31614 1.61921C2.11606 2.89188 0.633313 5.27233 0.633313 7.99992H2.03331Z" fill="#222838"/>
</svg>
