<svg width="16" height="14" viewBox="0 0 16 14" fill="none" xmlns="http://www.w3.org/2000/svg">
<path d="M3.33301 12.3334H2.63301V13.0334H3.33301V12.3334ZM3.33301 3.66669V2.96669H2.63301V3.66669H3.33301ZM14.6663 3.66669H15.3663V2.96669H14.6663V3.66669ZM14.6663 12.3334V13.0334H15.3663V12.3334H14.6663ZM0.633008 10.3334V11.0334H2.03301V10.3334H0.633008ZM1.33301 1.66669V0.966687H0.633008V1.66669H1.33301ZM12.6663 2.36669H13.3663V0.966687H12.6663V2.36669ZM11.333 7.00002L11.828 6.50505L11.333 6.01007L10.838 6.50505L11.333 7.00002ZM5.75065 6.58249H5.05065V7.28249H5.75065V6.58249ZM5.75065 6.08435V5.38435H5.05065V6.08435H5.75065ZM6.24882 6.08435H6.94882V5.38435H6.24882V6.08435ZM6.24882 6.58249V7.28249H6.94882V6.58249H6.24882ZM4.03301 12.3334V3.66669H2.63301V12.3334H4.03301ZM3.33301 4.36669H14.6663V2.96669H3.33301V4.36669ZM13.9663 3.66669V12.3334H15.3663V3.66669H13.9663ZM14.6663 11.6334H3.33301V13.0334H14.6663V11.6334ZM2.03301 10.3334V1.66669H0.633008V10.3334H2.03301ZM1.33301 2.36669H12.6663V0.966687H1.33301V2.36669ZM6.49465 12.8283L11.828 7.495L10.838 6.50505L5.5047 11.8384L6.49465 12.8283ZM10.838 7.495L14.1714 10.8283L15.1613 9.83838L11.828 6.50505L10.838 7.495ZM6.45065 6.58249V6.08435H5.05065V6.58249H6.45065ZM5.75065 6.78435H6.24882V5.38435H5.75065V6.78435ZM5.54882 6.08435V6.58249H6.94882V6.08435H5.54882ZM6.24882 5.88249H5.75065V7.28249H6.24882V5.88249Z" fill="#222838"/>
</svg>
