<svg width="40" height="16" viewBox="0 0 40 16" fill="none" xmlns="http://www.w3.org/2000/svg">
<path d="M10.8295 5.45455C10.7784 5.02273 10.571 4.6875 10.2074 4.44886C9.84375 4.21023 9.39773 4.09091 8.86932 4.09091C8.48295 4.09091 8.14489 4.15341 7.85511 4.27841C7.56818 4.40341 7.34375 4.57528 7.18182 4.79403C7.02273 5.01278 6.94318 5.26136 6.94318 5.53977C6.94318 5.77273 6.99858 5.97301 7.10938 6.14062C7.22301 6.3054 7.3679 6.44318 7.54403 6.55398C7.72017 6.66193 7.90483 6.75142 8.09801 6.82244C8.29119 6.89062 8.46875 6.94602 8.63068 6.98864L9.51705 7.22727C9.74432 7.28693 9.99716 7.36932 10.2756 7.47443C10.5568 7.57955 10.8253 7.72301 11.081 7.90483C11.3395 8.08381 11.5526 8.31392 11.7202 8.59517C11.8878 8.87642 11.9716 9.22159 11.9716 9.63068C11.9716 10.1023 11.848 10.5284 11.6009 10.9091C11.3565 11.2898 10.9986 11.5923 10.527 11.8168C10.0582 12.0412 9.48864 12.1534 8.81818 12.1534C8.19318 12.1534 7.65199 12.0526 7.1946 11.8509C6.74006 11.6491 6.3821 11.3679 6.12074 11.0071C5.86222 10.6463 5.71591 10.2273 5.68182 9.75H6.77273C6.80114 10.0795 6.91193 10.3523 7.10511 10.5682C7.30114 10.7812 7.5483 10.9403 7.84659 11.0455C8.14773 11.1477 8.47159 11.1989 8.81818 11.1989C9.22159 11.1989 9.58381 11.1335 9.90483 11.0028C10.2259 10.8693 10.4801 10.6847 10.6676 10.4489C10.8551 10.2102 10.9489 9.93182 10.9489 9.61364C10.9489 9.32386 10.8679 9.08807 10.706 8.90625C10.544 8.72443 10.331 8.5767 10.0668 8.46307C9.80256 8.34943 9.51705 8.25 9.21023 8.16477L8.13636 7.85795C7.45455 7.66193 6.91477 7.3821 6.51705 7.01847C6.11932 6.65483 5.92045 6.17898 5.92045 5.59091C5.92045 5.10227 6.05256 4.67614 6.31676 4.3125C6.58381 3.94602 6.94176 3.66193 7.39062 3.46023C7.84233 3.25568 8.34659 3.15341 8.90341 3.15341C9.46591 3.15341 9.96591 3.25426 10.4034 3.45597C10.8409 3.65483 11.1875 3.92756 11.4432 4.27415C11.7017 4.62074 11.8381 5.0142 11.8523 5.45455H10.8295ZM16.4319 12.1364C15.841 12.1364 15.3225 11.9957 14.8765 11.7145C14.4333 11.4332 14.0867 11.0398 13.8367 10.5341C13.5896 10.0284 13.466 9.4375 13.466 8.76136C13.466 8.07955 13.5896 7.48437 13.8367 6.97585C14.0867 6.46733 14.4333 6.07244 14.8765 5.79119C15.3225 5.50994 15.841 5.36932 16.4319 5.36932C17.0228 5.36932 17.5398 5.50994 17.983 5.79119C18.429 6.07244 18.7756 6.46733 19.0228 6.97585C19.2728 7.48437 19.3978 8.07955 19.3978 8.76136C19.3978 9.4375 19.2728 10.0284 19.0228 10.5341C18.7756 11.0398 18.429 11.4332 17.983 11.7145C17.5398 11.9957 17.0228 12.1364 16.4319 12.1364ZM16.4319 11.233C16.8808 11.233 17.2501 11.1179 17.5398 10.8878C17.8296 10.6577 18.0441 10.3551 18.1833 9.98011C18.3225 9.60511 18.3921 9.19886 18.3921 8.76136C18.3921 8.32386 18.3225 7.91619 18.1833 7.53835C18.0441 7.16051 17.8296 6.85511 17.5398 6.62216C17.2501 6.3892 16.8808 6.27273 16.4319 6.27273C15.983 6.27273 15.6137 6.3892 15.3239 6.62216C15.0342 6.85511 14.8197 7.16051 14.6805 7.53835C14.5413 7.91619 14.4717 8.32386 14.4717 8.76136C14.4717 9.19886 14.5413 9.60511 14.6805 9.98011C14.8197 10.3551 15.0342 10.6577 15.3239 10.8878C15.6137 11.1179 15.983 11.233 16.4319 11.233ZM23.792 12.1364C23.2011 12.1364 22.6827 11.9957 22.2366 11.7145C21.7935 11.4332 21.4469 11.0398 21.1969 10.5341C20.9497 10.0284 20.8261 9.4375 20.8261 8.76136C20.8261 8.07955 20.9497 7.48437 21.1969 6.97585C21.4469 6.46733 21.7935 6.07244 22.2366 5.79119C22.6827 5.50994 23.2011 5.36932 23.792 5.36932C24.383 5.36932 24.9 5.50994 25.3432 5.79119C25.7892 6.07244 26.1358 6.46733 26.383 6.97585C26.633 7.48437 26.758 8.07955 26.758 8.76136C26.758 9.4375 26.633 10.0284 26.383 10.5341C26.1358 11.0398 25.7892 11.4332 25.3432 11.7145C24.9 11.9957 24.383 12.1364 23.792 12.1364ZM23.792 11.233C24.2409 11.233 24.6102 11.1179 24.9 10.8878C25.1898 10.6577 25.4043 10.3551 25.5435 9.98011C25.6827 9.60511 25.7523 9.19886 25.7523 8.76136C25.7523 8.32386 25.6827 7.91619 25.5435 7.53835C25.4043 7.16051 25.1898 6.85511 24.9 6.62216C24.6102 6.3892 24.2409 6.27273 23.792 6.27273C23.3432 6.27273 22.9739 6.3892 22.6841 6.62216C22.3943 6.85511 22.1798 7.16051 22.0406 7.53835C21.9014 7.91619 21.8318 8.32386 21.8318 8.76136C21.8318 9.19886 21.9014 9.60511 22.0406 9.98011C22.1798 10.3551 22.3943 10.6577 22.6841 10.8878C22.9739 11.1179 23.3432 11.233 23.792 11.233ZM29.4988 8.0625V12H28.4931V5.45455H29.4647V6.47727H29.5499C29.7033 6.14489 29.9363 5.87784 30.2488 5.67614C30.5613 5.47159 30.9647 5.36932 31.459 5.36932C31.9022 5.36932 32.29 5.46023 32.6224 5.64205C32.9548 5.82102 33.2133 6.09375 33.3979 6.46023C33.5826 6.82386 33.6749 7.28409 33.6749 7.84091V12H32.6692V7.90909C32.6692 7.39489 32.5357 6.99432 32.2687 6.70739C32.0016 6.41761 31.6352 6.27273 31.1692 6.27273C30.8482 6.27273 30.5613 6.34233 30.3085 6.48153C30.0585 6.62074 29.861 6.82386 29.7161 7.09091C29.5712 7.35795 29.4988 7.68182 29.4988 8.0625Z" fill="#8940FD"/>
<rect x="0.75" y="0.75" width="38.5" height="14.5" rx="3.25" stroke="#8940FD" stroke-width="1.5"/>
</svg>
