<svg width="99" height="29" viewBox="0 0 99 29" fill="none"
    xmlns="http://www.w3.org/2000/svg">
    <path d="M4.92045 28.5455C4.30682 28.5455 3.73106 28.4962 3.19318 28.3977C2.66288 28.3068 2.22348 28.1894 1.875 28.0455L2.96591 24.4318C3.53409 24.6061 4.04545 24.7008 4.5 24.7159C4.96212 24.7311 5.35985 24.625 5.69318 24.3977C6.03409 24.1705 6.31061 23.7841 6.52273 23.2386L6.80682 22.5L0.545455 4.54545H5.63636L9.25 17.3636H9.43182L13.0795 4.54545H18.2045L11.4205 23.8864C11.0947 24.8258 10.6515 25.6439 10.0909 26.3409C9.53788 27.0455 8.83712 27.5871 7.98864 27.9659C7.14015 28.3523 6.11742 28.5455 4.92045 28.5455ZM27.4739 22.3409C25.6784 22.3409 24.133 21.9773 22.8375 21.25C21.5496 20.5152 20.5572 19.4773 19.8602 18.1364C19.1633 16.7879 18.8148 15.1932 18.8148 13.3523C18.8148 11.5568 19.1633 9.98106 19.8602 8.625C20.5572 7.26894 21.5383 6.21212 22.8034 5.45454C24.0761 4.69697 25.5686 4.31818 27.2807 4.31818C28.4322 4.31818 29.5042 4.50379 30.4966 4.875C31.4966 5.23864 32.3678 5.78788 33.1102 6.52273C33.8602 7.25758 34.4436 8.18182 34.8602 9.29545C35.2769 10.4015 35.4852 11.697 35.4852 13.1818V14.5114H20.7466V11.5114H30.9284C30.9284 10.8144 30.7769 10.197 30.4739 9.65909C30.1708 9.12121 29.7504 8.70076 29.2125 8.39773C28.6822 8.08712 28.0648 7.93182 27.3602 7.93182C26.6254 7.93182 25.9739 8.10227 25.4057 8.44318C24.8451 8.77651 24.4057 9.22727 24.0875 9.79545C23.7693 10.3561 23.6064 10.9811 23.5989 11.6705V14.5227C23.5989 15.3864 23.758 16.1326 24.0761 16.7614C24.4019 17.3902 24.8602 17.875 25.4511 18.2159C26.042 18.5568 26.7428 18.7273 27.5534 18.7273C28.0913 18.7273 28.5837 18.6515 29.0307 18.5C29.4777 18.3485 29.8602 18.1212 30.1784 17.8182C30.4966 17.5152 30.739 17.1439 30.9057 16.7045L35.383 17C35.1557 18.0758 34.6898 19.0152 33.9852 19.8182C33.2883 20.6136 32.3867 21.2348 31.2807 21.6818C30.1822 22.1212 28.9133 22.3409 27.4739 22.3409ZM38.0443 22V4.54545H42.7375V7.59091H42.9193C43.2375 6.50758 43.7716 5.68939 44.5216 5.13636C45.2716 4.57576 46.1352 4.29545 47.1125 4.29545C47.3549 4.29545 47.6163 4.31061 47.8966 4.34091C48.1769 4.37121 48.4231 4.41288 48.6352 4.46591V8.76136C48.408 8.69318 48.0936 8.63258 47.692 8.57955C47.2905 8.52652 46.9231 8.5 46.5898 8.5C45.8777 8.5 45.2413 8.6553 44.6807 8.96591C44.1277 9.26894 43.6883 9.69318 43.3625 10.2386C43.0443 10.7841 42.8852 11.4129 42.8852 12.125V22H38.0443ZM60.6972 4.54545V8.18182H50.1858V4.54545H60.6972ZM52.5722 0.363636H57.4131V16.6364C57.4131 17.0833 57.4813 17.4318 57.6176 17.6818C57.754 17.9242 57.9434 18.0947 58.1858 18.1932C58.4358 18.2917 58.7237 18.3409 59.0494 18.3409C59.2767 18.3409 59.504 18.322 59.7313 18.2841C59.9585 18.2386 60.1328 18.2045 60.254 18.1818L61.0153 21.7841C60.7729 21.8598 60.432 21.947 59.9926 22.0455C59.5532 22.1515 59.0191 22.2159 58.3903 22.2386C57.2237 22.2841 56.2009 22.1288 55.3222 21.7727C54.4509 21.4167 53.7729 20.8636 53.2881 20.1136C52.8032 19.3636 52.5646 18.4167 52.5722 17.2727V0.363636ZM68.2278 22.3295C67.1142 22.3295 66.1218 22.1364 65.2506 21.75C64.3794 21.3561 63.69 20.7765 63.1824 20.0114C62.6824 19.2386 62.4324 18.2765 62.4324 17.125C62.4324 16.1553 62.6104 15.3409 62.9665 14.6818C63.3225 14.0227 63.8074 13.4924 64.421 13.0909C65.0347 12.6894 65.7316 12.3864 66.5119 12.1818C67.2998 11.9773 68.1256 11.8333 68.9892 11.75C70.0044 11.6439 70.8225 11.5455 71.4437 11.4545C72.065 11.3561 72.5157 11.2121 72.796 11.0227C73.0763 10.8333 73.2165 10.553 73.2165 10.1818V10.1136C73.2165 9.39394 72.9892 8.83712 72.5347 8.44318C72.0877 8.04924 71.4513 7.85227 70.6256 7.85227C69.7544 7.85227 69.0612 8.04545 68.546 8.43182C68.0309 8.81061 67.69 9.28788 67.5233 9.86364L63.046 9.5C63.2733 8.43939 63.7203 7.52273 64.3869 6.75C65.0536 5.9697 65.9134 5.37121 66.9665 4.95454C68.0271 4.5303 69.2544 4.31818 70.6483 4.31818C71.618 4.31818 72.546 4.43182 73.4324 4.65909C74.3263 4.88636 75.118 5.23864 75.8074 5.71591C76.5044 6.19318 77.0536 6.80682 77.4551 7.55682C77.8566 8.29924 78.0574 9.18939 78.0574 10.2273V22H73.4665V19.5795H73.3301C73.0498 20.125 72.6748 20.6061 72.2051 21.0227C71.7354 21.4318 71.171 21.7538 70.5119 21.9886C69.8528 22.2159 69.0915 22.3295 68.2278 22.3295ZM69.6142 18.9886C70.3263 18.9886 70.9551 18.8485 71.5006 18.5682C72.046 18.2803 72.4741 17.8939 72.7847 17.4091C73.0953 16.9242 73.2506 16.375 73.2506 15.7614V13.9091C73.0991 14.0076 72.8907 14.0985 72.6256 14.1818C72.368 14.2576 72.0763 14.3295 71.7506 14.3977C71.4248 14.4583 71.0991 14.5152 70.7733 14.5682C70.4475 14.6136 70.1521 14.6553 69.8869 14.6932C69.3187 14.7765 68.8225 14.9091 68.3983 15.0909C67.9741 15.2727 67.6445 15.5189 67.4097 15.8295C67.1748 16.1326 67.0574 16.5114 67.0574 16.9659C67.0574 17.625 67.296 18.1288 67.7733 18.4773C68.2581 18.8182 68.8718 18.9886 69.6142 18.9886ZM81.2131 28.5455V4.54545H85.9858V7.47727H86.2017C86.4138 7.00758 86.7206 6.5303 87.1222 6.04545C87.5313 5.55303 88.0616 5.14394 88.7131 4.81818C89.3722 4.48485 90.1903 4.31818 91.1676 4.31818C92.4403 4.31818 93.6146 4.65152 94.6903 5.31818C95.7661 5.97727 96.6259 6.97348 97.2699 8.30682C97.9138 9.63258 98.2358 11.2955 98.2358 13.2955C98.2358 15.2424 97.9214 16.8864 97.2926 18.2273C96.6714 19.5606 95.8229 20.572 94.7472 21.2614C93.679 21.9432 92.482 22.2841 91.1562 22.2841C90.2169 22.2841 89.4176 22.1288 88.7585 21.8182C88.107 21.5076 87.5729 21.1174 87.1562 20.6477C86.7396 20.1705 86.4214 19.6894 86.2017 19.2045H86.054V28.5455H81.2131ZM85.9517 13.2727C85.9517 14.3106 86.0956 15.2159 86.3835 15.9886C86.6714 16.7614 87.0881 17.3636 87.6335 17.7955C88.179 18.2197 88.8419 18.4318 89.6222 18.4318C90.41 18.4318 91.0767 18.2159 91.6222 17.7841C92.1676 17.3447 92.5805 16.7386 92.8608 15.9659C93.1487 15.1856 93.2926 14.2879 93.2926 13.2727C93.2926 12.2652 93.1525 11.3788 92.8722 10.6136C92.5919 9.84848 92.179 9.25 91.6335 8.81818C91.0881 8.38636 90.4176 8.17045 89.6222 8.17045C88.8343 8.17045 88.1676 8.37879 87.6222 8.79545C87.0843 9.21212 86.6714 9.80303 86.3835 10.5682C86.0956 11.3333 85.9517 12.2348 85.9517 13.2727Z" fill="#8940FD"/>
</svg>
