<svg width="150" height="36" viewBox="0 0 150 36" fill="none" xmlns="http://www.w3.org/2000/svg">
<g clip-path="url(#clip0_620_11771)">
<path d="M43.8584 3.84421H49.7853L55.4906 14.6525H55.7337L61.439 3.84421H67.3659L58.2396 20.0709V28.9427H52.9847V20.0709L43.8584 3.84421Z" fill="black"/>
<path d="M74.3653 29.3085C72.4349 29.3085 70.7762 28.914 69.3857 28.1251C67.9987 27.3362 66.9262 26.2174 66.1791 24.7686C65.4284 23.3199 65.0566 21.6022 65.0566 19.6155C65.0566 17.6288 65.432 15.9793 66.1791 14.5162C66.9298 13.0531 67.9844 11.9127 69.3499 11.0951C70.7155 10.2775 72.317 9.86871 74.1579 9.86871C75.3948 9.86871 76.5495 10.0659 77.6219 10.464C78.6943 10.862 79.6309 11.4537 80.4316 12.2462C81.2324 13.0388 81.858 14.0321 82.3084 15.2298C82.7552 16.4275 82.9804 17.8261 82.9804 19.429V20.8634H67.1336V17.6288H78.0794C78.0794 16.8758 77.915 16.2124 77.5897 15.6314C77.2644 15.0505 76.814 14.5951 76.2385 14.2652C75.6629 13.9353 74.998 13.7703 74.2402 13.7703C73.4823 13.7703 72.7531 13.9532 72.1454 14.3154C71.5377 14.6776 71.0658 15.1653 70.7226 15.7749C70.3794 16.3845 70.2043 17.0587 70.1971 17.8046V20.8814C70.1971 21.8137 70.3687 22.617 70.7155 23.2948C71.0622 23.9725 71.552 24.4961 72.1883 24.8654C72.8246 25.2348 73.5753 25.4177 74.4475 25.4177C75.0266 25.4177 75.5557 25.3352 76.0347 25.1738C76.5173 25.0089 76.9284 24.765 77.268 24.4387C77.6112 24.1124 77.8721 23.7107 78.0508 23.2374L82.8625 23.5565C82.6194 24.7184 82.1189 25.7261 81.3646 26.5903C80.6104 27.4509 79.6416 28.1215 78.4584 28.5985C77.2716 29.0754 75.906 29.3157 74.3581 29.3157L74.3653 29.3085Z" fill="black"/>
<path d="M85.3223 28.9427V10.1161H90.3698V13.4009H90.5664C90.9096 12.2319 91.4816 11.3497 92.2895 10.7473C93.0974 10.1484 94.0232 9.8472 95.0742 9.8472C95.3351 9.8472 95.6175 9.86154 95.9178 9.8974C96.2181 9.92968 96.4826 9.9763 96.7114 10.0337V14.6668C96.4683 14.5951 96.1287 14.5269 95.6962 14.4696C95.2636 14.4122 94.8704 14.3835 94.513 14.3835C93.748 14.3835 93.0652 14.5485 92.4682 14.8784C91.8676 15.2083 91.3958 15.6673 91.0526 16.2554C90.7058 16.8435 90.5342 17.5213 90.5342 18.2887V28.9391H85.3294L85.3223 28.9427Z" fill="black"/>
<path d="M109.451 10.1162V14.0393H98.1514V10.1162H109.451ZM100.714 5.60495H105.919V23.1549C105.919 23.6354 105.994 24.012 106.141 24.2773C106.287 24.5427 106.491 24.7292 106.759 24.8332C107.024 24.9407 107.331 24.9909 107.682 24.9909C107.925 24.9909 108.171 24.9694 108.414 24.9228C108.658 24.8798 108.847 24.8439 108.976 24.8188L109.794 28.7025C109.533 28.7849 109.165 28.8818 108.693 28.9893C108.221 29.1005 107.646 29.1687 106.97 29.1902C105.716 29.2404 104.618 29.0718 103.678 28.6881C102.738 28.3044 102.005 27.7091 101.487 26.8987C100.965 26.0919 100.707 25.0698 100.718 23.8362V5.60854L100.714 5.60495Z" fill="black"/>
<path d="M117.409 29.2977C116.211 29.2977 115.146 29.0862 114.209 28.6666C113.273 28.247 112.533 27.6195 111.993 26.7911C111.45 25.9627 111.182 24.9264 111.182 23.6856C111.182 22.6385 111.375 21.7599 111.757 21.0499C112.14 20.3399 112.662 19.7661 113.323 19.3358C113.984 18.9055 114.735 18.5755 115.579 18.3568C116.422 18.1345 117.309 17.9803 118.235 17.8906C119.325 17.7759 120.204 17.6683 120.873 17.5643C121.541 17.4603 122.024 17.3097 122.328 17.1053C122.628 16.9009 122.782 16.5996 122.782 16.198V16.1227C122.782 15.3481 122.539 14.7457 122.056 14.3225C121.57 13.8958 120.884 13.6842 119.997 13.6842C119.06 13.6842 118.313 13.8922 117.763 14.3046C117.212 14.717 116.844 15.2334 116.662 15.8538L111.85 15.4629C112.093 14.3189 112.576 13.3292 113.291 12.4901C114.006 11.6509 114.935 11.0055 116.072 10.5536C117.209 10.1018 118.524 9.87228 120.022 9.87228C121.066 9.87228 122.063 9.99421 123.021 10.2416C123.979 10.4891 124.83 10.8656 125.574 11.382C126.321 11.8984 126.907 12.5582 127.34 13.3615C127.772 14.1647 127.987 15.1294 127.987 16.2482V28.9463H123.05V26.3357H122.903C122.603 26.9238 122.199 27.4402 121.695 27.8848C121.191 28.3295 120.583 28.6773 119.875 28.9284C119.168 29.1758 118.349 29.3013 117.42 29.3013L117.409 29.2977ZM118.9 25.6938C119.665 25.6938 120.34 25.5396 120.926 25.2348C121.513 24.9264 121.974 24.514 122.306 23.9904C122.639 23.4669 122.807 22.8752 122.807 22.2118V20.2143C122.642 20.3219 122.421 20.4152 122.142 20.5012C121.859 20.5873 121.545 20.6662 121.195 20.7343C120.844 20.8025 120.494 20.867 120.144 20.9172C119.793 20.971 119.475 21.0176 119.189 21.0571C118.578 21.1467 118.045 21.2902 117.588 21.4874C117.13 21.6846 116.776 21.9464 116.526 22.2799C116.272 22.6098 116.147 23.0222 116.147 23.5099C116.147 24.2199 116.404 24.7614 116.923 25.1344C117.441 25.5073 118.099 25.6902 118.896 25.6902L118.9 25.6938Z" fill="black"/>
<path d="M131.697 36V10.1161H136.831V13.279H137.063C137.292 12.7734 137.624 12.257 138.06 11.7298C138.496 11.2027 139.065 10.7616 139.773 10.4066C140.48 10.0516 141.356 9.87228 142.407 9.87228C143.776 9.87228 145.038 10.2309 146.193 10.9445C147.351 11.6581 148.273 12.7339 148.967 14.1683C149.66 15.6027 150.007 17.3993 150.007 19.5545C150.007 21.7097 149.671 23.4238 148.999 24.869C148.327 26.3106 147.415 27.4007 146.264 28.1394C145.113 28.8782 143.823 29.2475 142.396 29.2475C141.388 29.2475 140.53 29.079 139.826 28.7455C139.122 28.412 138.546 27.9888 138.096 27.476C137.649 26.9668 137.306 26.4468 137.07 25.9269H136.913V36H131.708H131.697ZM136.791 19.5294C136.791 20.6483 136.945 21.6237 137.256 22.4592C137.567 23.2912 138.014 23.9402 138.6 24.4028C139.186 24.8654 139.898 25.0949 140.738 25.0949C141.578 25.0949 142.304 24.8582 142.89 24.3921C143.476 23.9259 143.923 23.2696 144.227 22.4305C144.531 21.5914 144.684 20.6267 144.684 19.533C144.684 18.4393 144.534 17.489 144.234 16.6642C143.934 15.8394 143.487 15.1939 142.901 14.7277C142.314 14.2616 141.592 14.0285 140.738 14.0285C139.883 14.0285 139.176 14.2544 138.593 14.7026C138.01 15.1509 137.563 15.7892 137.256 16.614C136.949 17.4388 136.791 18.4106 136.791 19.5294Z" fill="black"/>
<path d="M31.3793 6.12133L26.3246 1.05071C24.9305 -0.347836 22.6641 -0.347836 21.2699 1.05071L16.2152 6.12133L11.157 1.05071C9.7628 -0.347836 7.49641 -0.347836 6.10226 1.05071L1.04757 6.12133C-0.346585 7.51988 -0.346585 9.79341 1.04757 11.192L6.10226 16.2626L1.04757 21.3332C-0.346585 22.7318 -0.346585 25.0053 1.04757 26.4038L6.10226 31.4745C7.49641 32.873 9.7628 32.873 11.157 31.4745L31.3793 11.1884C32.7735 9.78983 32.7735 7.51629 31.3793 6.11775V6.12133ZM8.62961 28.9427L3.57491 23.8721L8.62961 18.8015C10.0238 17.4029 10.0238 15.1294 8.62961 13.7309L3.57491 8.66023L8.62961 3.58961L13.6843 8.66023C17.8739 12.863 17.8739 19.6729 13.6843 23.8757L8.62961 28.9463V28.9427ZM20.3727 17.1627C20.5478 14.3441 19.9008 11.486 18.4244 8.9758L23.7973 3.58602L28.852 8.65665L20.3727 17.1627Z" fill="#8940FD"/>
</g>
<defs>
<clipPath id="clip0_620_11771">
<rect width="150" height="36" fill="white"/>
</clipPath>
</defs>
</svg>
