<svg width="16" height="16" viewBox="0 0 16 16" fill="none" xmlns="http://www.w3.org/2000/svg"><path d="M3.600 0.656 C 3.084 0.751,2.814 0.832,2.507 0.986 C 1.746 1.366,1.124 2.062,0.840 2.849 C 0.686 3.274,0.654 3.472,0.654 4.000 C 0.654 4.528,0.686 4.726,0.840 5.151 C 1.169 6.063,1.937 6.831,2.849 7.160 C 3.274 7.314,3.472 7.346,4.000 7.346 C 4.528 7.346,4.726 7.314,5.151 7.160 C 6.063 6.831,6.831 6.063,7.160 5.151 C 7.314 4.726,7.346 4.528,7.346 4.000 C 7.346 3.576,7.337 3.473,7.285 3.267 C 7.114 2.590,6.835 2.087,6.374 1.626 C 5.907 1.159,5.345 0.851,4.693 0.707 C 4.500 0.664,3.747 0.629,3.600 0.656 M11.600 0.656 C 11.084 0.751,10.814 0.832,10.507 0.986 C 9.746 1.366,9.124 2.062,8.840 2.849 C 8.686 3.274,8.654 3.472,8.654 4.000 C 8.654 4.528,8.686 4.726,8.840 5.151 C 9.169 6.063,9.937 6.831,10.849 7.160 C 11.274 7.314,11.472 7.346,12.000 7.346 C 12.528 7.346,12.726 7.314,13.151 7.160 C 14.063 6.831,14.831 6.063,15.160 5.151 C 15.314 4.726,15.346 4.528,15.346 4.000 C 15.346 3.576,15.337 3.473,15.285 3.267 C 15.114 2.590,14.835 2.087,14.374 1.626 C 13.907 1.159,13.345 0.851,12.693 0.707 C 12.500 0.664,11.747 0.629,11.600 0.656 M4.532 2.110 C 5.177 2.280,5.725 2.833,5.896 3.485 C 5.972 3.773,5.972 4.227,5.896 4.515 C 5.757 5.046,5.371 5.512,4.867 5.761 C 4.559 5.913,4.363 5.957,4.000 5.957 C 3.637 5.957,3.441 5.913,3.133 5.761 C 2.629 5.512,2.243 5.046,2.104 4.515 C 2.028 4.227,2.028 3.773,2.104 3.485 C 2.304 2.726,2.985 2.136,3.760 2.052 C 4.002 2.026,4.298 2.049,4.532 2.110 M12.532 2.110 C 13.177 2.280,13.725 2.833,13.896 3.485 C 13.972 3.773,13.972 4.227,13.896 4.515 C 13.757 5.046,13.371 5.512,12.867 5.761 C 12.559 5.913,12.363 5.957,12.000 5.957 C 11.637 5.957,11.441 5.913,11.133 5.761 C 10.629 5.512,10.243 5.046,10.104 4.515 C 10.064 4.363,10.049 4.224,10.049 4.000 C 10.049 3.502,10.181 3.120,10.476 2.762 C 10.980 2.151,11.754 1.905,12.532 2.110 M3.600 8.656 C 3.084 8.751,2.814 8.832,2.507 8.986 C 1.746 9.366,1.124 10.062,0.840 10.849 C 0.686 11.274,0.654 11.472,0.654 12.000 C 0.654 12.528,0.686 12.726,0.840 13.151 C 1.169 14.063,1.937 14.831,2.849 15.160 C 3.274 15.314,3.472 15.346,4.000 15.346 C 4.528 15.346,4.726 15.314,5.151 15.160 C 6.063 14.831,6.831 14.063,7.160 13.151 C 7.314 12.726,7.346 12.528,7.346 12.000 C 7.346 11.576,7.337 11.473,7.285 11.267 C 7.114 10.590,6.835 10.087,6.374 9.626 C 5.907 9.159,5.345 8.851,4.693 8.707 C 4.500 8.664,3.747 8.629,3.600 8.656 M11.600 8.656 C 11.084 8.751,10.814 8.832,10.507 8.986 C 9.746 9.366,9.124 10.062,8.840 10.849 C 8.686 11.274,8.654 11.472,8.654 12.000 C 8.654 12.528,8.686 12.726,8.840 13.151 C 9.169 14.063,9.937 14.831,10.849 15.160 C 11.274 15.314,11.472 15.346,12.000 15.346 C 12.528 15.346,12.726 15.314,13.151 15.160 C 14.063 14.831,14.831 14.063,15.160 13.151 C 15.314 12.726,15.346 12.528,15.346 12.000 C 15.346 11.576,15.337 11.473,15.285 11.267 C 15.114 10.590,14.835 10.087,14.374 9.626 C 13.907 9.159,13.345 8.851,12.693 8.707 C 12.500 8.664,11.747 8.629,11.600 8.656 M4.532 10.110 C 5.177 10.280,5.725 10.833,5.896 11.485 C 5.972 11.773,5.972 12.227,5.896 12.515 C 5.757 13.046,5.371 13.512,4.867 13.761 C 4.559 13.913,4.363 13.957,4.000 13.957 C 3.637 13.957,3.441 13.913,3.133 13.761 C 2.629 13.512,2.243 13.046,2.104 12.515 C 2.028 12.227,2.028 11.773,2.104 11.485 C 2.304 10.726,2.985 10.136,3.760 10.052 C 4.002 10.026,4.298 10.049,4.532 10.110 M12.532 10.110 C 13.177 10.280,13.725 10.833,13.896 11.485 C 13.972 11.773,13.972 12.227,13.896 12.515 C 13.757 13.046,13.371 13.512,12.867 13.761 C 12.559 13.913,12.363 13.957,12.000 13.957 C 11.637 13.957,11.441 13.913,11.133 13.761 C 10.629 13.512,10.243 13.046,10.104 12.515 C 10.064 12.363,10.049 12.224,10.049 12.000 C 10.049 11.502,10.181 11.120,10.476 10.762 C 10.980 10.151,11.754 9.905,12.532 10.110 " stroke="none" fill-rule="evenodd" fill="black"></path></svg>