<svg width="22" height="22" viewBox="0 0 22 22" fill="none" xmlns="http://www.w3.org/2000/svg"><path d="M10.175 0.242 C 8.631 0.394,7.483 0.712,6.215 1.339 C 4.999 1.940,4.033 2.668,3.039 3.731 C 1.731 5.131,0.761 7.063,0.405 8.978 C 0.261 9.755,0.239 10.019,0.239 11.000 C 0.239 12.197,0.321 12.839,0.603 13.870 C 1.409 16.810,3.467 19.300,6.215 20.662 C 7.316 21.207,8.371 21.526,9.698 21.714 C 10.137 21.776,11.863 21.776,12.302 21.714 C 13.629 21.526,14.684 21.207,15.785 20.662 C 17.003 20.059,17.968 19.331,18.961 18.269 C 20.269 16.869,21.239 14.937,21.595 13.022 C 21.739 12.245,21.761 11.981,21.761 11.000 C 21.761 9.803,21.679 9.161,21.397 8.130 C 20.591 5.189,18.531 2.696,15.785 1.339 C 14.707 0.806,13.696 0.493,12.454 0.309 C 12.099 0.256,10.506 0.209,10.175 0.242 M10.230 11.005 L 10.230 20.177 9.946 20.151 C 9.326 20.095,8.305 19.842,7.657 19.585 C 6.693 19.202,5.769 18.649,5.023 18.008 C 4.710 17.740,4.217 17.264,4.217 17.231 C 4.217 17.217,4.303 17.169,4.409 17.123 C 4.639 17.025,5.105 16.753,5.403 16.544 C 6.796 15.565,7.820 13.987,8.141 12.323 C 8.695 9.457,7.414 6.619,4.895 5.132 C 4.734 5.037,4.515 4.922,4.409 4.877 C 4.303 4.831,4.217 4.783,4.217 4.769 C 4.217 4.736,4.710 4.260,5.023 3.992 C 5.806 3.320,6.790 2.741,7.783 2.369 C 8.505 2.099,9.548 1.857,10.074 1.839 L 10.230 1.833 10.230 11.005 M12.782 1.963 C 14.389 2.283,15.826 2.993,17.087 4.091 C 17.460 4.416,17.807 4.758,17.781 4.775 C 17.772 4.781,17.654 4.839,17.518 4.904 C 16.350 5.463,15.271 6.483,14.580 7.682 C 13.947 8.780,13.633 10.221,13.743 11.523 C 13.878 13.126,14.487 14.505,15.565 15.648 C 16.110 16.227,16.895 16.807,17.537 17.105 L 17.786 17.220 17.707 17.321 C 17.571 17.493,16.865 18.114,16.482 18.399 C 15.845 18.871,15.099 19.284,14.343 19.585 C 13.695 19.842,12.674 20.095,12.054 20.151 L 11.770 20.177 11.770 11.000 L 11.770 1.823 12.054 1.849 C 12.210 1.863,12.537 1.914,12.782 1.963 M3.575 6.223 C 4.450 6.584,5.336 7.343,5.892 8.208 C 6.080 8.500,6.358 9.096,6.468 9.442 C 6.768 10.383,6.768 11.617,6.468 12.558 C 6.358 12.904,6.080 13.500,5.892 13.792 C 5.317 14.687,4.431 15.433,3.506 15.804 C 3.273 15.897,3.210 15.910,3.184 15.871 C 3.055 15.673,2.767 15.144,2.643 14.876 C 1.400 12.171,1.525 9.026,2.978 6.480 C 3.230 6.039,3.181 6.060,3.575 6.223 M19.022 6.481 C 20.602 9.249,20.602 12.751,19.022 15.519 C 18.899 15.736,18.786 15.913,18.772 15.913 C 18.712 15.913,18.194 15.682,17.941 15.542 C 17.115 15.087,16.266 14.192,15.823 13.312 C 15.653 12.975,15.488 12.491,15.393 12.052 C 15.326 11.742,15.312 11.562,15.312 11.000 C 15.312 10.244,15.372 9.863,15.588 9.251 C 15.988 8.117,16.908 7.028,17.953 6.451 C 18.238 6.293,18.681 6.094,18.758 6.089 C 18.780 6.088,18.899 6.264,19.022 6.481 " stroke="none" fill-rule="evenodd" fill="black"></path></svg>