<svg width="22" height="22" viewBox="0 0 22 22" fill="none" xmlns="http://www.w3.org/2000/svg"><path d="M10.065 0.262 C 8.712 0.431,7.387 0.967,6.316 1.776 C 4.659 3.027,3.611 4.806,3.276 6.937 C 3.226 7.253,3.214 7.768,3.200 10.081 L 3.184 12.846 1.958 15.296 C 1.285 16.644,0.733 17.755,0.733 17.765 C 0.733 17.775,5.353 17.783,11.000 17.783 C 16.647 17.783,21.267 17.775,21.267 17.765 C 21.267 17.755,20.715 16.644,20.042 15.296 L 18.816 12.846 18.800 10.081 C 18.786 7.768,18.774 7.253,18.724 6.937 C 18.157 3.335,15.447 0.689,11.881 0.258 C 11.514 0.213,10.431 0.216,10.065 0.262 M11.629 1.835 C 12.355 1.909,13.016 2.092,13.658 2.398 C 15.326 3.191,16.563 4.697,17.012 6.482 C 17.186 7.173,17.195 7.360,17.196 10.349 L 17.197 13.164 17.948 14.667 C 18.362 15.493,18.700 16.178,18.700 16.188 C 18.700 16.198,15.235 16.207,11.000 16.207 C 6.765 16.207,3.300 16.198,3.300 16.188 C 3.300 16.178,3.638 15.493,4.052 14.667 L 4.803 13.164 4.804 10.349 C 4.805 7.360,4.814 7.173,4.988 6.482 C 5.437 4.697,6.674 3.191,8.342 2.398 C 9.361 1.913,10.491 1.720,11.629 1.835 M9.020 20.992 L 9.020 21.780 11.000 21.780 L 12.980 21.780 12.980 20.992 L 12.980 20.203 11.000 20.203 L 9.020 20.203 9.020 20.992 " stroke="none" fill-rule="evenodd" fill="black"></path></svg>