<svg width="16" height="22" viewBox="0 0 16 22" fill="none" xmlns="http://www.w3.org/2000/svg"><path d="M0.240 10.853 C 0.240 16.676,0.248 21.440,0.257 21.440 C 0.267 21.440,2.013 20.198,4.137 18.681 L 8.000 15.922 11.863 18.681 C 13.987 20.198,15.733 21.440,15.743 21.440 C 15.752 21.440,15.760 16.676,15.760 10.853 L 15.760 0.267 8.000 0.267 L 0.240 0.267 0.240 10.853 M14.240 10.150 L 14.240 18.540 14.153 18.475 C 14.106 18.439,12.702 17.435,11.033 16.244 L 8.000 14.078 4.967 16.244 C 3.298 17.435,1.894 18.439,1.847 18.475 L 1.760 18.540 1.760 10.150 L 1.760 1.760 8.000 1.760 L 14.240 1.760 14.240 10.150 " stroke="none" fill-rule="evenodd" fill="black"></path></svg>