<svg width="20" height="23" viewBox="0 0 20 23" fill="none" xmlns="http://www.w3.org/2000/svg"><path d="M2.283 2.100 L 0.884 3.500 2.283 4.900 L 3.683 6.300 10.992 6.300 L 18.300 6.300 18.300 3.500 L 18.300 0.700 10.992 0.700 L 3.683 0.700 2.283 2.100 M16.700 3.500 L 16.700 4.700 10.508 4.700 L 4.316 4.700 3.717 4.100 L 3.117 3.500 3.717 2.900 L 4.316 2.300 10.508 2.300 L 16.700 2.300 16.700 3.500 M0.200 15.000 L 0.200 21.799 4.258 21.808 L 8.317 21.817 8.507 21.906 C 8.869 22.075,9.157 22.468,9.193 22.840 L 9.208 23.000 10.000 23.000 L 10.792 23.000 10.807 22.840 C 10.843 22.468,11.131 22.075,11.493 21.906 L 11.683 21.817 15.742 21.808 L 19.800 21.799 19.800 15.000 L 19.800 8.200 16.925 8.201 C 14.064 8.201,13.502 8.218,13.009 8.319 C 12.413 8.440,11.733 8.739,11.223 9.103 C 10.899 9.334,10.391 9.829,10.175 10.123 C 10.090 10.239,10.011 10.333,10.000 10.333 C 9.989 10.333,9.910 10.239,9.825 10.123 C 9.609 9.829,9.101 9.334,8.777 9.103 C 8.267 8.739,7.587 8.440,6.991 8.319 C 6.498 8.218,5.936 8.201,3.075 8.201 L 0.200 8.200 0.200 15.000 M6.833 9.894 C 7.480 10.089,8.105 10.501,8.495 10.988 C 8.728 11.280,8.991 11.786,9.106 12.167 L 9.182 12.417 9.192 16.446 C 9.201 20.295,9.199 20.473,9.143 20.450 C 8.914 20.354,8.566 20.267,8.292 20.236 C 8.084 20.213,6.869 20.200,4.885 20.200 L 1.800 20.200 1.800 14.999 L 1.800 9.797 4.192 9.808 C 6.563 9.819,6.585 9.820,6.833 9.894 M18.200 15.000 L 18.200 20.200 15.115 20.200 C 13.131 20.200,11.916 20.213,11.708 20.236 C 11.434 20.267,11.086 20.354,10.857 20.450 C 10.801 20.473,10.799 20.295,10.808 16.446 L 10.818 12.417 10.894 12.167 C 11.011 11.779,11.272 11.279,11.511 10.982 C 11.974 10.408,12.738 9.954,13.439 9.837 C 13.537 9.821,14.648 9.806,15.908 9.804 L 18.200 9.800 18.200 15.000 " stroke="none" fill-rule="evenodd" fill="black"></path></svg>