<svg width="16" height="16" viewBox="0 0 16 16" fill="none" xmlns="http://www.w3.org/2000/svg"><path d="M6.733 0.669 C 6.190 0.726,5.437 0.934,4.933 1.167 C 3.985 1.606,3.137 2.348,2.534 3.267 C 2.343 3.559,2.078 4.110,1.950 4.486 C 1.855 4.761,1.741 5.227,1.693 5.527 L 1.678 5.627 1.159 5.627 L 0.640 5.627 0.640 7.573 L 0.640 9.520 8.000 9.520 L 15.360 9.520 15.360 7.573 L 15.360 5.627 14.841 5.627 L 14.322 5.627 14.305 5.527 C 14.124 4.468,13.777 3.649,13.164 2.841 C 12.941 2.546,12.412 2.024,12.101 1.792 C 11.263 1.165,10.259 0.772,9.231 0.668 C 8.910 0.636,7.048 0.637,6.733 0.669 M9.374 2.088 C 9.662 2.143,9.898 2.205,10.107 2.279 C 11.317 2.711,12.292 3.687,12.719 4.893 C 12.799 5.119,12.906 5.520,12.906 5.593 C 12.907 5.620,11.908 5.627,8.000 5.627 C 4.092 5.627,3.093 5.620,3.094 5.593 C 3.094 5.575,3.118 5.458,3.148 5.333 C 3.552 3.640,4.979 2.331,6.693 2.082 C 7.017 2.035,7.086 2.033,8.147 2.040 C 8.923 2.045,9.210 2.056,9.374 2.088 M13.973 7.587 L 13.973 8.133 8.000 8.133 L 2.027 8.133 2.027 7.587 L 2.027 7.040 8.000 7.040 L 13.973 7.040 13.973 7.587 M0.649 10.700 C 0.670 10.926,0.739 11.200,0.833 11.431 C 0.965 11.751,1.267 12.150,1.516 12.333 L 1.625 12.413 1.627 12.733 C 1.630 13.570,1.756 14.068,2.093 14.574 C 2.519 15.214,3.177 15.632,3.939 15.747 C 4.328 15.806,11.672 15.806,12.061 15.747 C 12.823 15.632,13.481 15.214,13.907 14.574 C 14.244 14.068,14.370 13.570,14.373 12.733 L 14.375 12.413 14.484 12.333 C 14.733 12.150,15.035 11.751,15.167 11.431 C 15.261 11.200,15.330 10.926,15.351 10.700 L 15.368 10.507 14.673 10.507 L 13.979 10.507 13.951 10.668 C 13.896 10.980,13.691 11.242,13.391 11.382 C 13.263 11.443,13.204 11.453,13.000 11.453 C 12.796 11.453,12.737 11.443,12.609 11.382 C 12.309 11.242,12.104 10.980,12.049 10.668 L 12.021 10.507 11.333 10.507 L 10.646 10.507 10.617 10.668 C 10.562 10.980,10.357 11.242,10.058 11.382 C 9.929 11.443,9.871 11.453,9.667 11.453 C 9.463 11.453,9.404 11.443,9.275 11.382 C 8.976 11.242,8.771 10.980,8.716 10.668 L 8.688 10.507 8.000 10.507 L 7.312 10.507 7.284 10.668 C 7.229 10.980,7.024 11.242,6.725 11.382 C 6.596 11.443,6.537 11.453,6.333 11.453 C 6.129 11.453,6.071 11.443,5.942 11.382 C 5.643 11.242,5.438 10.980,5.383 10.668 L 5.354 10.507 4.667 10.507 L 3.979 10.507 3.951 10.668 C 3.896 10.980,3.691 11.242,3.391 11.382 C 3.263 11.443,3.204 11.453,3.000 11.453 C 2.796 11.453,2.737 11.443,2.609 11.382 C 2.309 11.242,2.104 10.980,2.049 10.668 L 2.021 10.507 1.327 10.507 L 0.632 10.507 0.649 10.700 M4.869 12.347 C 5.102 12.532,5.416 12.691,5.720 12.778 C 5.900 12.830,5.996 12.840,6.333 12.840 C 6.671 12.840,6.767 12.830,6.947 12.778 C 7.251 12.691,7.564 12.532,7.798 12.347 L 8.000 12.186 8.202 12.347 C 8.436 12.532,8.749 12.691,9.053 12.778 C 9.233 12.830,9.329 12.840,9.667 12.840 C 10.004 12.840,10.100 12.830,10.280 12.778 C 10.585 12.691,10.898 12.532,11.131 12.347 L 11.333 12.186 11.535 12.347 C 11.881 12.621,12.343 12.808,12.769 12.845 L 12.966 12.862 12.956 13.144 C 12.947 13.405,12.938 13.443,12.846 13.637 C 12.660 14.027,12.283 14.314,11.878 14.372 C 11.627 14.409,4.373 14.409,4.122 14.372 C 3.717 14.314,3.340 14.027,3.154 13.637 C 3.062 13.443,3.053 13.405,3.044 13.144 L 3.034 12.862 3.231 12.845 C 3.656 12.808,4.160 12.602,4.480 12.334 C 4.575 12.255,4.657 12.189,4.660 12.188 C 4.664 12.187,4.758 12.259,4.869 12.347 " stroke="none" fill-rule="evenodd" fill="black"></path></svg>