<svg width="20" height="21" viewBox="0 0 20 21" fill="none" xmlns="http://www.w3.org/2000/svg"><path d="M9.200 2.483 L 9.200 4.000 10.000 4.000 L 10.800 4.000 10.800 2.483 L 10.800 0.967 10.000 0.967 L 9.200 0.967 9.200 2.483 M4.685 2.483 L 4.121 3.027 4.325 3.255 C 4.437 3.381,4.886 3.839,5.323 4.274 L 6.117 5.064 6.675 4.529 C 6.982 4.235,7.233 3.977,7.233 3.955 C 7.233 3.934,6.787 3.471,6.242 2.927 L 5.250 1.939 4.685 2.483 M13.755 2.928 C 13.212 3.472,12.767 3.934,12.767 3.956 C 12.767 3.977,13.018 4.236,13.325 4.531 L 13.883 5.067 14.875 4.069 C 15.420 3.520,15.867 3.058,15.867 3.042 C 15.867 3.026,15.614 2.771,15.305 2.476 L 14.744 1.939 13.755 2.928 M4.774 6.175 C 4.758 6.235,4.476 7.360,4.147 8.675 L 3.550 11.067 1.842 11.067 L 0.133 11.067 0.133 14.800 L 0.133 18.533 1.211 18.533 L 2.288 18.533 2.348 18.725 C 2.600 19.528,3.289 20.252,4.117 20.582 C 4.876 20.886,5.777 20.861,6.521 20.518 C 7.280 20.167,7.898 19.479,8.149 18.708 L 8.205 18.533 10.000 18.533 L 11.795 18.533 11.851 18.708 C 12.001 19.168,12.380 19.737,12.737 20.038 C 13.314 20.523,13.897 20.754,14.633 20.789 C 15.461 20.828,16.228 20.543,16.841 19.969 C 17.238 19.597,17.509 19.182,17.652 18.725 L 17.712 18.533 18.789 18.533 L 19.867 18.533 19.867 14.800 L 19.867 11.067 18.158 11.067 L 16.450 11.067 15.853 8.675 C 15.524 7.360,15.242 6.235,15.226 6.175 L 15.197 6.067 10.000 6.067 L 4.803 6.067 4.774 6.175 M14.364 9.325 C 14.591 10.237,14.784 11.002,14.792 11.025 C 14.804 11.058,13.832 11.067,10.000 11.067 C 6.168 11.067,5.196 11.058,5.208 11.025 C 5.216 11.002,5.409 10.237,5.636 9.325 L 6.049 7.667 10.000 7.667 L 13.951 7.667 14.364 9.325 M18.267 14.800 L 18.267 16.933 17.989 16.933 L 17.712 16.933 17.653 16.742 C 17.620 16.636,17.535 16.440,17.464 16.306 C 17.049 15.529,16.334 14.973,15.477 14.760 C 15.106 14.668,14.437 14.661,14.092 14.744 C 13.028 15.003,12.176 15.769,11.852 16.758 L 11.795 16.933 10.000 16.933 L 8.205 16.933 8.148 16.758 C 7.824 15.769,6.972 15.003,5.908 14.744 C 5.563 14.661,4.894 14.668,4.523 14.760 C 3.666 14.973,2.951 15.529,2.536 16.306 C 2.465 16.440,2.380 16.636,2.347 16.742 L 2.288 16.933 2.011 16.933 L 1.733 16.933 1.733 14.800 L 1.733 12.667 10.000 12.667 L 18.267 12.667 18.267 14.800 M5.742 16.367 C 6.136 16.514,6.457 16.824,6.607 17.200 C 6.711 17.463,6.711 18.004,6.607 18.267 C 6.210 19.264,4.912 19.515,4.189 18.733 C 4.088 18.625,3.964 18.449,3.911 18.343 C 3.823 18.162,3.817 18.124,3.817 17.733 C 3.817 17.327,3.819 17.312,3.927 17.106 C 4.287 16.415,5.047 16.106,5.742 16.367 M15.100 16.319 C 15.661 16.447,16.131 16.967,16.198 17.535 C 16.253 18.001,16.126 18.393,15.811 18.733 C 15.199 19.394,14.141 19.339,13.592 18.616 C 13.252 18.169,13.209 17.482,13.490 17.002 C 13.740 16.576,14.238 16.285,14.743 16.270 C 14.813 16.268,14.974 16.290,15.100 16.319 " fill="#686E80" stroke="none" fill-rule="evenodd"></path></svg>