<svg width="16" height="23" viewBox="0 0 16 23" fill="none" xmlns="http://www.w3.org/2000/svg"><path d="M7.587 0.241 C 5.677 0.456,4.213 2.082,4.213 3.989 C 4.213 5.416,4.986 6.699,6.243 7.358 C 6.820 7.661,7.333 7.786,8.000 7.786 C 8.782 7.786,9.449 7.586,10.093 7.160 C 11.104 6.491,11.721 5.396,11.779 4.171 C 11.843 2.819,11.175 1.543,10.011 0.795 C 9.662 0.571,9.103 0.354,8.685 0.282 C 8.385 0.229,7.861 0.210,7.587 0.241 M8.560 1.871 C 9.209 2.034,9.790 2.546,10.047 3.179 C 10.301 3.809,10.247 4.561,9.905 5.123 C 9.674 5.503,9.334 5.814,8.949 6.000 C 8.607 6.164,8.444 6.198,8.000 6.198 C 7.544 6.198,7.386 6.163,7.027 5.985 C 6.462 5.704,6.060 5.229,5.877 4.627 C 5.813 4.414,5.805 4.344,5.805 4.013 C 5.805 3.561,5.857 3.340,6.045 2.982 C 6.248 2.597,6.639 2.214,7.027 2.019 C 7.464 1.800,8.051 1.743,8.560 1.871 M3.731 8.668 C 2.491 8.775,1.362 9.483,0.693 10.574 C 0.023 11.667,-0.052 13.149,0.506 14.293 C 0.660 14.611,0.810 14.850,0.996 15.080 C 1.092 15.197,2.706 16.829,4.585 18.707 L 8.001 22.120 11.502 18.613 C 14.716 15.395,15.018 15.085,15.179 14.840 C 15.650 14.125,15.866 13.424,15.866 12.613 C 15.866 11.207,15.151 9.943,13.937 9.203 C 13.261 8.790,12.362 8.586,11.566 8.663 C 10.792 8.738,10.167 8.973,9.540 9.427 C 9.448 9.493,9.065 9.855,8.687 10.233 L 8.001 10.919 7.327 10.251 C 6.957 9.883,6.581 9.528,6.493 9.461 C 5.707 8.866,4.720 8.583,3.731 8.668 M12.407 10.281 C 13.119 10.424,13.770 10.953,14.083 11.642 C 14.230 11.967,14.274 12.186,14.277 12.600 C 14.279 13.001,14.242 13.193,14.090 13.555 C 13.921 13.960,13.891 13.993,10.868 17.013 L 8.000 19.880 5.158 17.040 C 3.595 15.478,2.265 14.134,2.203 14.053 C 2.002 13.793,1.867 13.511,1.769 13.147 C 1.700 12.891,1.706 12.297,1.780 12.024 C 1.896 11.601,2.112 11.229,2.418 10.927 C 2.636 10.711,2.817 10.586,3.105 10.451 C 3.470 10.281,3.609 10.254,4.107 10.255 C 4.529 10.256,4.557 10.259,4.800 10.341 C 4.939 10.387,5.155 10.482,5.280 10.552 C 5.490 10.668,5.599 10.769,6.754 11.919 L 8.002 13.160 9.208 11.953 C 9.871 11.289,10.455 10.715,10.507 10.678 C 11.040 10.290,11.732 10.146,12.407 10.281 " stroke="none" fill-rule="evenodd" fill="black"></path></svg>