<svg width="24" height="23" viewBox="0 0 24 23" fill="none" xmlns="http://www.w3.org/2000/svg"><path d="M6.200 1.120 L 6.200 2.240 7.000 2.240 L 7.800 2.240 7.800 1.120 L 7.800 0.000 7.000 0.000 L 6.200 0.000 6.200 1.120 M3.009 2.389 C 2.704 2.896,2.617 3.071,2.653 3.104 C 2.706 3.155,4.514 4.240,4.565 4.252 C 4.583 4.256,4.777 3.963,4.996 3.600 C 5.298 3.100,5.383 2.929,5.347 2.896 C 5.321 2.871,4.913 2.620,4.440 2.339 C 3.967 2.057,3.542 1.802,3.496 1.772 C 3.415 1.721,3.394 1.748,3.009 2.389 M9.625 2.300 C 9.100 2.616,8.656 2.889,8.638 2.907 C 8.602 2.944,9.384 4.264,9.435 4.252 C 9.486 4.240,11.294 3.155,11.347 3.104 C 11.383 3.071,11.299 2.902,11.002 2.409 C 10.787 2.050,10.604 1.750,10.595 1.742 C 10.587 1.734,10.150 1.985,9.625 2.300 M11.577 5.089 C 10.632 6.044,10.522 6.169,10.380 6.452 L 10.225 6.764 9.431 5.972 L 8.637 5.180 7.609 6.220 C 6.737 7.101,6.557 7.304,6.429 7.546 C 6.040 8.286,6.009 9.187,6.344 10.047 L 6.417 10.234 5.914 10.750 C 5.487 11.189,5.385 11.318,5.244 11.603 C 4.797 12.511,4.874 13.634,5.439 14.427 C 5.559 14.596,7.138 16.204,9.567 18.630 L 13.501 22.560 14.060 22.000 L 14.619 21.440 10.695 17.510 C 8.537 15.348,6.734 13.516,6.688 13.438 C 6.579 13.255,6.523 12.894,6.564 12.636 C 6.609 12.354,6.740 12.154,7.138 11.761 L 7.481 11.421 10.020 13.960 L 12.560 16.500 13.123 15.936 L 13.687 15.373 10.862 12.558 C 9.308 11.010,7.976 9.652,7.903 9.542 C 7.730 9.280,7.661 8.959,7.716 8.663 C 7.775 8.342,7.848 8.228,8.263 7.802 L 8.637 7.420 11.838 10.620 L 15.040 13.819 15.600 13.260 L 16.160 12.701 13.985 10.521 C 11.943 8.474,11.805 8.327,11.740 8.127 C 11.647 7.839,11.670 7.441,11.794 7.200 C 11.845 7.101,12.051 6.853,12.253 6.650 L 12.619 6.279 16.013 9.670 L 19.407 13.060 19.384 12.780 C 19.371 12.626,19.313 11.492,19.256 10.260 C 19.141 7.811,19.141 7.818,19.363 7.549 C 19.574 7.293,19.755 7.226,20.238 7.223 L 20.656 7.220 21.266 9.880 C 21.602 11.343,21.895 12.693,21.918 12.880 C 22.027 13.768,21.892 14.795,21.560 15.600 C 21.230 16.400,20.970 16.753,19.944 17.791 L 19.103 18.642 19.661 19.201 L 20.219 19.760 20.972 19.010 C 21.387 18.598,21.839 18.125,21.978 17.960 C 23.285 16.402,23.828 14.173,23.402 12.111 C 23.319 11.709,21.972 5.825,21.936 5.710 C 21.916 5.646,21.826 5.640,20.793 5.640 C 19.555 5.640,19.406 5.660,18.923 5.892 C 18.535 6.079,18.018 6.603,17.830 7.001 C 17.613 7.460,17.579 7.655,17.588 8.378 L 17.596 9.016 15.107 6.527 L 12.618 4.038 11.577 5.089 M3.155 6.150 C 2.640 6.673,2.143 7.213,2.052 7.351 C 1.561 8.089,1.467 9.054,1.800 9.914 L 1.917 10.213 1.448 10.699 C 0.931 11.237,0.732 11.537,0.573 12.020 C 0.483 12.292,0.467 12.412,0.466 12.820 C 0.464 13.473,0.581 13.890,0.907 14.393 C 1.000 14.536,2.517 16.086,5.016 18.590 L 8.978 22.561 9.549 21.991 L 10.120 21.421 6.166 17.460 C 3.425 14.715,2.189 13.451,2.138 13.340 C 2.097 13.252,2.057 13.063,2.048 12.920 C 2.023 12.500,2.128 12.284,2.589 11.799 L 2.973 11.395 3.307 11.727 L 3.640 12.059 4.200 11.500 L 4.760 10.941 4.083 10.260 C 3.323 9.497,3.229 9.357,3.206 8.953 C 3.181 8.506,3.264 8.333,3.734 7.850 L 4.135 7.437 4.448 7.748 L 4.760 8.059 5.320 7.500 L 5.880 6.941 5.010 6.070 C 4.532 5.592,4.130 5.200,4.117 5.200 C 4.103 5.200,3.671 5.628,3.155 6.150 " stroke="none" fill-rule="evenodd" fill="black"></path></svg>