<svg width="24" height="22" viewBox="0 0 24 22" fill="none" xmlns="http://www.w3.org/2000/svg"><path d="M5.540 0.242 C 4.024 0.478,2.813 1.630,2.503 3.132 C 2.422 3.523,2.422 4.198,2.503 4.592 C 2.792 5.995,3.946 7.139,5.357 7.422 C 5.809 7.513,6.613 7.484,7.033 7.363 C 7.642 7.186,8.109 6.920,8.574 6.481 C 9.077 6.007,9.436 5.386,9.607 4.695 C 9.717 4.249,9.727 3.482,9.627 3.071 C 9.290 1.682,8.296 0.668,6.929 0.317 C 6.570 0.225,5.886 0.188,5.540 0.242 M17.710 7.124 L 17.700 13.488 17.340 13.580 C 16.885 13.697,16.492 13.858,16.093 14.093 C 15.762 14.287,15.231 14.698,15.004 14.934 L 14.869 15.075 14.375 18.408 C 14.103 20.240,13.880 21.753,13.880 21.770 C 13.880 21.787,15.959 21.800,18.500 21.800 C 22.170 21.800,23.120 21.790,23.119 21.750 C 23.118 21.723,22.896 20.210,22.625 18.388 L 22.133 15.077 21.996 14.935 C 21.769 14.698,21.239 14.288,20.907 14.093 C 20.508 13.858,20.115 13.697,19.660 13.580 L 19.300 13.488 19.290 7.124 L 19.280 0.760 18.500 0.760 L 17.720 0.760 17.710 7.124 M6.578 1.861 C 7.487 2.098,8.122 2.927,8.119 3.875 C 8.119 4.175,8.023 4.567,7.889 4.816 C 7.829 4.927,7.661 5.140,7.516 5.288 C 6.717 6.106,5.430 6.112,4.621 5.302 C 3.990 4.672,3.833 3.716,4.229 2.923 C 4.470 2.441,5.106 1.940,5.600 1.844 C 5.889 1.787,6.325 1.795,6.578 1.861 M5.600 8.565 C 4.046 8.651,2.699 9.152,1.390 10.132 L 0.960 10.454 0.960 13.527 L 0.960 16.600 1.820 16.600 L 2.680 16.600 2.680 19.241 L 2.680 21.882 3.470 21.871 L 4.260 21.860 4.260 18.440 L 4.260 15.020 3.410 15.009 L 2.559 14.998 2.570 13.110 L 2.580 11.221 2.780 11.088 C 4.314 10.067,6.493 9.848,8.274 10.535 C 8.715 10.706,8.898 10.798,9.290 11.049 L 9.600 11.248 9.600 13.124 L 9.600 15.000 8.740 15.000 L 7.880 15.000 7.880 18.440 L 7.880 21.880 8.660 21.880 L 9.440 21.880 9.440 19.240 L 9.440 16.600 10.320 16.600 L 11.200 16.600 11.190 13.532 L 11.180 10.463 10.880 10.230 C 9.306 9.009,7.558 8.458,5.600 8.565 M19.314 15.124 C 19.657 15.211,20.237 15.506,20.477 15.714 L 20.644 15.860 20.942 17.880 C 21.105 18.991,21.250 19.968,21.263 20.050 L 21.287 20.200 18.504 20.200 C 16.973 20.200,15.720 20.192,15.720 20.183 C 15.720 20.173,15.863 19.197,16.039 18.013 L 16.357 15.860 16.524 15.714 C 16.734 15.531,17.308 15.227,17.608 15.141 C 18.139 14.988,18.759 14.982,19.314 15.124 " stroke="none" fill-rule="evenodd" fill="black"></path></svg>