<svg width="16" height="16" viewBox="0 0 16 16" fill="none" xmlns="http://www.w3.org/2000/svg"><path d="M7.310 0.668 C 6.219 0.773,5.003 1.184,4.107 1.750 C 2.598 2.704,1.515 4.109,0.977 5.807 C 0.739 6.561,0.655 7.131,0.655 8.000 C 0.655 8.869,0.739 9.439,0.977 10.193 C 1.515 11.891,2.598 13.296,4.107 14.250 C 4.737 14.648,5.636 15.014,6.400 15.183 C 7.015 15.319,7.273 15.345,8.000 15.345 C 8.725 15.345,8.978 15.319,9.600 15.184 C 10.309 15.029,11.315 14.619,11.893 14.251 C 12.848 13.642,13.642 12.848,14.251 11.893 C 14.451 11.579,14.811 10.821,14.947 10.427 C 15.605 8.512,15.481 6.547,14.586 4.733 C 14.049 3.645,13.322 2.777,12.347 2.063 C 11.949 1.772,11.727 1.639,11.240 1.399 C 10.547 1.058,9.811 0.829,9.013 0.707 C 8.681 0.655,7.676 0.632,7.310 0.668 M8.880 2.094 C 9.865 2.241,10.778 2.625,11.600 3.236 C 11.926 3.479,12.523 4.076,12.763 4.400 C 13.387 5.242,13.755 6.123,13.911 7.147 C 13.975 7.569,13.975 8.431,13.911 8.853 C 13.710 10.171,13.153 11.276,12.214 12.214 C 11.567 12.862,10.901 13.290,10.040 13.613 C 9.402 13.851,8.774 13.958,8.000 13.958 C 7.007 13.958,6.248 13.785,5.373 13.359 C 4.774 13.066,4.282 12.712,3.785 12.215 C 3.288 11.718,2.934 11.226,2.641 10.627 C 2.218 9.757,2.042 8.988,2.042 8.000 C 2.042 7.009,2.217 6.245,2.641 5.373 C 2.940 4.760,3.292 4.275,3.811 3.760 C 4.829 2.750,6.072 2.178,7.547 2.043 C 7.783 2.021,8.605 2.053,8.880 2.094 M5.340 5.340 L 4.853 5.826 5.940 6.913 L 7.026 8.000 5.940 9.087 L 4.853 10.174 5.340 10.660 L 5.826 11.147 6.913 10.060 L 8.000 8.974 9.087 10.060 L 10.174 11.147 10.660 10.660 L 11.147 10.174 10.060 9.087 L 8.974 8.000 10.060 6.913 L 11.147 5.826 10.660 5.340 L 10.174 4.853 9.087 5.940 L 8.000 7.026 6.913 5.940 L 5.826 4.853 5.340 5.340 " stroke="none" fill-rule="evenodd" fill="black"></path></svg>