<svg width="16" height="15" viewBox="0 0 16 15" fill="none" xmlns="http://www.w3.org/2000/svg"><path d="M6.268 3.122 C 5.258 4.442,4.540 5.358,4.521 5.351 C 4.494 5.340,1.105 2.692,0.753 2.406 L 0.640 2.314 0.640 8.170 L 0.640 14.027 8.000 14.027 L 15.360 14.027 15.360 8.170 L 15.360 2.314 15.247 2.406 C 14.891 2.695,11.506 5.340,11.478 5.351 C 11.458 5.359,10.761 4.470,9.731 3.122 C 8.788 1.889,8.009 0.880,7.999 0.880 C 7.990 0.880,7.210 1.889,6.268 3.122 M9.600 5.252 C 10.473 6.395,11.197 7.331,11.209 7.332 C 11.221 7.333,11.838 6.856,12.581 6.273 C 13.323 5.690,13.940 5.209,13.952 5.204 C 13.964 5.200,13.973 6.871,13.973 8.918 L 13.973 12.640 8.000 12.640 L 2.027 12.640 2.027 8.918 C 2.027 6.871,2.036 5.200,2.048 5.204 C 2.060 5.209,2.677 5.690,3.419 6.273 C 4.162 6.856,4.779 7.333,4.791 7.332 C 4.803 7.331,5.527 6.395,6.400 5.252 C 7.273 4.109,7.993 3.173,8.000 3.173 C 8.007 3.173,8.727 4.109,9.600 5.252 M7.636 7.336 C 6.840 7.469,6.167 8.052,5.901 8.840 C 5.834 9.039,5.829 9.084,5.829 9.507 C 5.829 9.929,5.834 9.975,5.901 10.173 C 6.194 11.042,6.953 11.635,7.848 11.696 C 8.860 11.765,9.769 11.150,10.099 10.173 C 10.166 9.975,10.171 9.929,10.171 9.507 C 10.171 9.084,10.166 9.039,10.099 8.840 C 9.746 7.794,8.703 7.157,7.636 7.336 M8.327 8.780 C 8.489 8.848,8.700 9.075,8.757 9.244 C 8.853 9.526,8.791 9.811,8.584 10.037 C 8.416 10.221,8.244 10.298,8.000 10.298 C 7.756 10.298,7.584 10.221,7.416 10.037 C 7.128 9.723,7.124 9.299,7.406 8.985 C 7.652 8.712,7.987 8.637,8.327 8.780 " stroke="none" fill-rule="evenodd" fill="black"></path></svg>