<svg width="16" height="16" viewBox="0 0 16 16" fill="none" xmlns="http://www.w3.org/2000/svg"><path d="M3.973 1.320 L 3.973 1.973 2.307 1.973 L 0.640 1.973 0.640 8.667 L 0.640 15.360 8.000 15.360 L 15.360 15.360 15.360 8.667 L 15.360 1.973 13.693 1.973 L 12.027 1.973 12.027 1.320 L 12.027 0.667 11.333 0.667 L 10.640 0.667 10.640 1.320 L 10.640 1.973 8.000 1.973 L 5.360 1.973 5.360 1.320 L 5.360 0.667 4.667 0.667 L 3.973 0.667 3.973 1.320 M13.973 4.000 L 13.973 4.640 8.000 4.640 L 2.027 4.640 2.027 4.000 L 2.027 3.360 8.000 3.360 L 13.973 3.360 13.973 4.000 M13.973 10.000 L 13.973 13.973 8.000 13.973 L 2.027 13.973 2.027 10.000 L 2.027 6.027 8.000 6.027 L 13.973 6.027 13.973 10.000 M3.333 8.333 L 3.333 9.013 4.333 9.013 L 5.333 9.013 5.333 8.333 L 5.333 7.653 4.333 7.653 L 3.333 7.653 3.333 8.333 M7.013 8.333 L 7.013 9.013 8.000 9.013 L 8.987 9.013 8.987 8.333 L 8.987 7.653 8.000 7.653 L 7.013 7.653 7.013 8.333 M10.667 8.333 L 10.667 9.013 11.667 9.013 L 12.667 9.013 12.667 8.333 L 12.667 7.653 11.667 7.653 L 10.667 7.653 10.667 8.333 M3.333 11.667 L 3.333 12.347 4.333 12.347 L 5.333 12.347 5.333 11.667 L 5.333 10.987 4.333 10.987 L 3.333 10.987 3.333 11.667 M7.013 11.667 L 7.013 12.347 8.000 12.347 L 8.987 12.347 8.987 11.667 L 8.987 10.987 8.000 10.987 L 7.013 10.987 7.013 11.667 " stroke="none" fill-rule="evenodd" fill="black"></path></svg>