<svg width="16" height="16" viewBox="0 0 16 16" fill="none" xmlns="http://www.w3.org/2000/svg"><path d="M1.390 1.869 C 0.641 2.870,0.477 3.104,0.496 3.144 C 0.509 3.172,0.922 3.729,1.413 4.384 L 2.306 5.573 4.806 5.573 L 7.307 5.573 7.307 6.667 L 7.307 7.760 4.806 7.760 L 2.306 7.760 1.413 8.950 C 0.922 9.604,0.509 10.162,0.496 10.189 C 0.477 10.229,0.641 10.464,1.390 11.465 L 2.307 12.691 4.807 12.692 L 7.307 12.693 7.307 14.027 L 7.307 15.360 8.000 15.360 L 8.693 15.360 8.693 12.253 L 8.693 9.147 11.186 9.147 L 13.680 9.147 14.600 7.920 C 15.106 7.246,15.520 6.682,15.520 6.667 C 15.520 6.652,15.106 6.088,14.600 5.413 L 13.680 4.187 11.186 4.187 L 8.693 4.187 8.693 2.413 L 8.693 0.640 5.500 0.641 L 2.307 0.642 1.390 1.869 M7.307 3.107 L 7.307 4.187 5.161 4.187 L 3.014 4.187 2.613 3.653 C 2.364 3.322,2.219 3.106,2.231 3.086 C 2.242 3.068,2.424 2.822,2.635 2.540 L 3.020 2.027 5.163 2.027 L 7.307 2.027 7.307 3.107 M13.383 6.120 L 13.793 6.667 13.383 7.213 L 12.974 7.760 10.834 7.760 L 8.693 7.760 8.693 6.667 L 8.693 5.573 10.834 5.573 L 12.974 5.573 13.383 6.120 M7.307 10.227 L 7.307 11.307 5.163 11.307 L 3.020 11.307 2.635 10.793 C 2.424 10.511,2.242 10.265,2.231 10.247 C 2.219 10.227,2.364 10.011,2.613 9.681 L 3.014 9.147 5.161 9.147 L 7.307 9.147 7.307 10.227 " stroke="none" fill-rule="evenodd" fill="black"></path></svg>