<svg width="14" height="16" viewBox="0 0 14 16" fill="none" xmlns="http://www.w3.org/2000/svg"><path d="M6.323 0.691 C 4.314 0.959,2.639 2.448,2.138 4.411 C 2.007 4.925,1.983 5.186,1.983 6.150 L 1.983 7.000 2.672 7.000 L 3.360 7.000 3.360 6.224 C 3.361 5.407,3.383 5.128,3.474 4.770 C 3.799 3.496,4.826 2.469,6.100 2.144 C 7.081 1.894,8.142 2.070,8.980 2.623 C 9.752 3.132,10.303 3.898,10.526 4.770 C 10.617 5.128,10.639 5.407,10.640 6.224 L 10.640 7.000 11.328 7.000 L 12.017 7.000 12.017 6.150 C 12.017 5.188,11.993 4.924,11.864 4.416 C 11.358 2.434,9.677 0.949,7.646 0.689 C 7.307 0.645,6.658 0.646,6.323 0.691 M6.475 3.034 C 6.062 3.121,5.727 3.269,5.413 3.502 C 4.981 3.823,4.655 4.254,4.480 4.733 C 4.393 4.971,4.317 5.343,4.317 5.528 L 4.317 5.670 5.005 5.670 L 5.693 5.670 5.694 5.594 C 5.695 5.382,5.802 5.096,5.962 4.879 C 6.174 4.591,6.596 4.365,6.924 4.364 L 7.000 4.363 7.000 3.675 L 7.000 2.987 6.843 2.988 C 6.756 2.989,6.591 3.010,6.475 3.034 M0.981 10.179 L 0.981 12.378 1.978 13.043 L 2.975 13.708 2.981 14.531 L 2.987 15.353 7.000 15.353 L 11.013 15.353 11.019 14.531 L 11.025 13.708 12.022 13.043 L 13.019 12.378 13.019 10.179 L 13.020 7.980 7.000 7.980 L 0.980 7.980 0.981 10.179 M11.643 10.494 L 11.642 11.632 10.640 12.297 L 9.638 12.962 9.637 13.469 L 9.637 13.977 7.000 13.977 L 4.363 13.977 4.363 13.469 L 4.362 12.962 3.360 12.297 L 2.358 11.632 2.357 10.494 L 2.357 9.357 7.000 9.357 L 11.643 9.357 11.643 10.494 " stroke="none" fill-rule="evenodd" fill="black"></path></svg>