<svg width="14" height="14" viewBox="0 0 14 14" fill="none" xmlns="http://www.w3.org/2000/svg"><path d="M6.498 2.033 C 5.807 2.097,5.016 2.361,4.410 2.730 C 4.076 2.933,3.782 3.167,3.475 3.475 C 2.902 4.047,2.521 4.659,2.272 5.405 C 1.746 6.978,2.020 8.673,3.016 10.010 C 3.228 10.294,3.706 10.772,3.990 10.984 C 5.327 11.980,7.023 12.253,8.597 11.727 C 9.339 11.480,9.956 11.095,10.525 10.525 C 11.098 9.951,11.479 9.340,11.729 8.592 C 12.196 7.196,12.027 5.662,11.268 4.408 C 10.875 3.758,10.242 3.125,9.592 2.732 C 8.673 2.176,7.588 1.931,6.498 2.033 " stroke="none" fill="black" fill-rule="evenodd"></path></svg>