<svg width="22" height="22" viewBox="0 0 22 22" fill="none" xmlns="http://www.w3.org/2000/svg"><path d="M15.462 0.296 C 14.402 0.390,13.421 0.772,12.522 1.442 C 12.335 1.581,10.676 3.211,7.966 5.917 L 3.703 10.173 3.703 13.676 L 3.703 17.178 2.081 18.801 L 0.459 20.423 1.018 20.982 L 1.577 21.541 3.199 19.919 L 4.822 18.297 8.324 18.297 L 11.827 18.297 16.083 14.034 C 20.259 9.851,20.579 9.515,20.907 8.965 C 21.532 7.917,21.811 6.723,21.708 5.536 C 21.588 4.152,21.060 2.993,20.097 2.004 C 19.122 1.002,17.893 0.418,16.499 0.295 C 16.035 0.253,15.935 0.254,15.462 0.296 M16.893 1.941 C 18.482 2.282,19.738 3.561,20.071 5.175 C 20.248 6.032,20.145 6.940,19.780 7.729 C 19.530 8.270,19.278 8.592,18.448 9.432 L 17.660 10.230 15.302 10.230 C 14.005 10.230,12.943 10.218,12.943 10.203 C 12.943 10.188,13.756 9.363,14.749 8.369 L 16.555 6.563 15.996 6.004 L 15.437 5.445 10.358 10.523 L 5.280 15.602 5.280 13.218 L 5.280 10.834 9.322 6.797 C 13.657 2.469,13.583 2.538,14.273 2.219 C 14.604 2.066,15.103 1.920,15.455 1.872 C 15.817 1.823,16.495 1.856,16.893 1.941 M16.060 11.797 C 16.060 11.812,14.959 12.926,13.613 14.272 L 11.165 16.720 8.782 16.720 L 6.399 16.720 8.873 14.245 L 11.348 11.770 13.704 11.770 C 15.000 11.770,16.060 11.782,16.060 11.797 " stroke="none" fill-rule="evenodd" fill="black"></path></svg>