<svg width="16" height="16" viewBox="0 0 16 16" fill="none" xmlns="http://www.w3.org/2000/svg"><path d="M0.640 2.473 L 0.640 4.307 3.133 6.800 L 5.627 9.293 5.627 12.420 C 5.627 14.140,5.636 15.547,5.647 15.547 C 5.658 15.547,6.723 14.913,8.013 14.139 L 10.360 12.731 10.367 11.012 L 10.374 9.293 12.867 6.800 L 15.360 4.307 15.360 2.473 L 15.360 0.640 8.000 0.640 L 0.640 0.640 0.640 2.473 M13.973 2.860 L 13.973 3.693 11.467 6.200 L 8.960 8.707 8.960 10.326 L 8.960 11.944 8.007 12.516 L 7.053 13.088 7.040 10.891 L 7.027 8.693 4.527 6.193 L 2.027 3.693 2.027 2.860 L 2.027 2.027 8.000 2.027 L 13.973 2.027 13.973 2.860 " stroke="none" fill-rule="evenodd" fill="black"></path></svg>