<svg width="21" height="22" viewBox="0 0 21 22" fill="none" xmlns="http://www.w3.org/2000/svg"><path d="M20.143 0.246 C 18.658 0.368,17.111 0.829,15.838 1.529 C 12.688 3.258,10.609 6.402,10.256 9.970 C 10.210 10.436,10.210 11.579,10.256 12.045 C 10.462 14.130,11.267 16.110,12.580 17.763 C 12.948 18.226,13.857 19.127,14.316 19.483 C 16.147 20.905,18.220 21.674,20.536 21.792 L 21.000 21.815 21.000 21.005 L 21.000 20.195 20.676 20.195 C 19.739 20.195,18.455 19.921,17.484 19.514 C 14.834 18.403,12.836 16.130,12.114 13.405 C 10.998 9.193,12.928 4.820,16.779 2.833 C 18.012 2.197,19.463 1.820,20.676 1.820 L 21.000 1.820 21.000 1.015 L 21.000 0.210 20.729 0.215 C 20.580 0.218,20.316 0.232,20.143 0.246 M0.700 3.571 C 0.700 6.125,0.717 6.579,0.827 7.018 C 1.212 8.548,2.345 9.713,3.866 10.140 L 4.200 10.234 4.200 15.617 L 4.200 21.000 5.005 21.000 L 5.810 21.000 5.810 15.617 L 5.810 10.234 6.151 10.139 C 7.635 9.724,8.779 8.541,9.168 7.018 C 9.287 6.552,9.309 6.004,9.309 3.456 L 9.310 1.015 8.505 1.015 L 7.700 1.015 7.700 3.659 C 7.700 6.527,7.698 6.559,7.505 7.036 C 7.201 7.784,6.515 8.389,5.716 8.617 C 5.385 8.711,4.685 8.728,4.378 8.649 C 3.562 8.440,2.864 7.855,2.521 7.095 C 2.310 6.625,2.310 6.631,2.310 3.694 L 2.310 1.015 1.505 1.015 L 0.700 1.015 0.700 3.571 M4.200 3.763 L 4.200 6.510 5.005 6.510 L 5.810 6.510 5.810 3.763 L 5.810 1.015 5.005 1.015 L 4.200 1.015 4.200 3.763 M20.493 5.238 C 18.894 5.423,17.661 6.050,16.652 7.190 C 15.311 8.707,14.866 10.870,15.499 12.795 C 16.220 14.987,18.083 16.499,20.389 16.764 C 20.561 16.783,20.769 16.800,20.851 16.800 L 21.000 16.800 21.000 16.014 L 21.000 15.228 20.886 15.211 C 20.824 15.201,20.662 15.185,20.528 15.174 C 20.178 15.147,19.741 15.034,19.370 14.876 C 16.950 13.842,16.056 10.925,17.481 8.714 C 17.802 8.216,18.325 7.713,18.848 7.398 C 19.326 7.110,20.013 6.880,20.513 6.841 C 20.656 6.830,20.824 6.814,20.886 6.804 L 21.000 6.787 21.000 6.001 L 21.000 5.215 20.799 5.220 C 20.688 5.223,20.550 5.231,20.493 5.238 " stroke="none" fill-rule="evenodd" fill="black"></path></svg>