<svg width="16" height="16" viewBox="0 0 16 16" fill="none" xmlns="http://www.w3.org/2000/svg"><path d="M11.697 0.322 C 10.882 0.394,10.159 0.743,9.579 1.345 C 9.129 1.811,8.843 2.356,8.702 3.013 C 8.660 3.208,8.653 3.372,8.653 4.173 C 8.653 4.976,8.660 5.138,8.702 5.332 C 8.972 6.584,9.884 7.564,11.092 7.900 L 11.306 7.960 11.306 11.647 L 11.307 15.333 12.000 15.333 L 12.693 15.333 12.694 11.647 L 12.694 7.960 12.908 7.900 C 13.812 7.648,14.583 7.012,15.011 6.164 C 15.139 5.912,15.272 5.487,15.321 5.178 C 15.382 4.791,15.364 3.289,15.295 2.987 C 15.146 2.335,14.862 1.801,14.421 1.345 C 13.702 0.599,12.721 0.231,11.697 0.322 M0.640 2.807 C 0.640 4.605,0.647 4.987,0.681 5.200 C 0.890 6.490,1.838 7.551,3.092 7.900 L 3.306 7.960 3.306 11.647 L 3.307 15.333 4.000 15.333 L 4.693 15.333 4.694 11.647 L 4.694 7.960 4.908 7.900 C 5.975 7.603,6.835 6.783,7.194 5.720 C 7.347 5.267,7.343 5.346,7.353 2.913 L 7.362 0.667 6.669 0.667 L 5.975 0.667 5.967 2.847 L 5.960 5.027 5.897 5.213 C 5.668 5.892,5.199 6.357,4.533 6.564 C 4.246 6.653,3.754 6.653,3.467 6.564 C 2.801 6.357,2.332 5.892,2.103 5.213 L 2.040 5.027 2.033 2.847 L 2.025 0.667 1.332 0.667 L 0.640 0.667 0.640 2.807 M3.307 2.667 L 3.307 4.667 4.000 4.667 L 4.693 4.667 4.693 2.667 L 4.693 0.667 4.000 0.667 L 3.307 0.667 3.307 2.667 M12.440 1.747 C 12.543 1.768,12.740 1.842,12.879 1.910 C 13.090 2.014,13.171 2.075,13.375 2.277 C 13.655 2.556,13.802 2.796,13.899 3.132 C 13.957 3.335,13.960 3.390,13.960 4.173 C 13.960 4.966,13.957 5.008,13.898 5.200 C 13.687 5.874,13.207 6.353,12.532 6.564 C 12.247 6.653,11.753 6.653,11.468 6.564 C 10.793 6.353,10.313 5.874,10.102 5.200 C 10.043 5.008,10.040 4.966,10.040 4.173 C 10.040 3.390,10.043 3.335,10.101 3.132 C 10.198 2.796,10.345 2.556,10.625 2.277 C 10.828 2.075,10.910 2.014,11.121 1.910 C 11.260 1.841,11.451 1.768,11.547 1.748 C 11.776 1.699,12.208 1.698,12.440 1.747 " stroke="none" fill-rule="evenodd" fill="black"></path></svg>