<svg width="16" height="16" viewBox="0 0 16 16" fill="none" xmlns="http://www.w3.org/2000/svg"><path d="M7.307 1.693 L 7.307 2.747 7.237 2.747 C 7.108 2.747,6.552 2.884,6.241 2.993 C 4.513 3.597,3.220 5.057,2.816 6.858 C 2.778 7.027,2.747 7.198,2.747 7.237 L 2.747 7.307 1.693 7.307 L 0.640 7.307 0.640 8.000 L 0.640 8.693 1.693 8.693 L 2.747 8.693 2.747 8.763 C 2.747 8.802,2.778 8.973,2.816 9.142 C 3.220 10.943,4.513 12.403,6.241 13.007 C 6.552 13.116,7.108 13.253,7.237 13.253 L 7.307 13.253 7.307 14.307 L 7.307 15.360 8.000 15.360 L 8.693 15.360 8.693 14.307 L 8.693 13.253 8.763 13.253 C 8.802 13.253,8.973 13.222,9.142 13.184 C 10.943 12.780,12.403 11.487,13.007 9.759 C 13.116 9.448,13.253 8.892,13.253 8.763 L 13.253 8.693 14.307 8.693 L 15.360 8.693 15.360 8.000 L 15.360 7.307 14.307 7.307 L 13.253 7.307 13.253 7.237 C 13.253 7.198,13.222 7.027,13.184 6.858 C 12.780 5.057,11.487 3.597,9.759 2.993 C 9.448 2.884,8.892 2.747,8.763 2.747 L 8.693 2.747 8.693 1.693 L 8.693 0.640 8.000 0.640 L 7.307 0.640 7.307 1.693 M8.695 4.144 C 9.127 4.222,9.660 4.424,10.027 4.648 C 10.992 5.238,11.651 6.202,11.859 7.325 C 11.918 7.644,11.918 8.356,11.859 8.675 C 11.620 9.969,10.788 11.037,9.606 11.569 C 9.332 11.692,8.922 11.817,8.613 11.870 C 8.331 11.919,7.616 11.912,7.325 11.859 C 5.843 11.586,4.670 10.536,4.243 9.100 C 4.130 8.720,4.097 8.466,4.097 8.000 C 4.097 7.534,4.130 7.280,4.243 6.900 C 4.523 5.958,5.137 5.159,5.973 4.648 C 6.365 4.409,6.958 4.192,7.377 4.135 C 7.492 4.120,7.623 4.102,7.667 4.096 C 7.812 4.075,8.489 4.107,8.695 4.144 M7.499 6.160 C 7.172 6.246,6.951 6.380,6.666 6.666 C 6.259 7.073,6.107 7.436,6.107 8.000 C 6.107 8.564,6.259 8.927,6.666 9.334 C 7.073 9.741,7.436 9.893,8.000 9.893 C 8.564 9.893,8.927 9.741,9.334 9.334 C 9.741 8.927,9.893 8.564,9.893 8.000 C 9.893 7.436,9.741 7.073,9.334 6.666 C 9.045 6.376,8.826 6.245,8.490 6.159 C 8.216 6.089,7.770 6.090,7.499 6.160 M8.288 7.580 C 8.602 7.788,8.567 8.288,8.227 8.453 C 8.064 8.532,7.861 8.519,7.712 8.420 C 7.402 8.215,7.432 7.718,7.764 7.549 C 7.922 7.469,8.139 7.482,8.288 7.580 " stroke="none" fill-rule="evenodd" fill="black"></path></svg>