<svg width="22" height="22" viewBox="0 0 22 22" fill="none" xmlns="http://www.w3.org/2000/svg"><path d="M10.209 0.295 C 9.382 0.469,8.686 0.851,8.095 1.453 C 7.746 1.810,7.577 2.051,7.349 2.512 C 6.966 3.289,6.894 3.750,6.893 5.412 L 6.893 6.443 8.562 7.443 L 10.230 8.444 10.230 9.278 L 10.230 10.113 5.234 13.610 L 0.238 17.107 0.229 19.443 L 0.219 21.780 11.000 21.780 L 21.781 21.780 21.771 19.443 L 21.762 17.107 16.804 13.641 L 11.847 10.175 11.845 8.866 L 11.843 7.557 10.175 6.556 L 8.507 5.555 8.507 4.785 C 8.508 3.876,8.548 3.635,8.768 3.198 C 9.057 2.624,9.638 2.119,10.240 1.919 C 10.509 1.830,10.596 1.819,11.037 1.819 C 11.475 1.819,11.565 1.831,11.828 1.918 C 12.327 2.083,12.790 2.431,13.113 2.883 C 13.450 3.355,13.567 3.775,13.567 4.512 L 13.567 4.987 14.373 4.987 L 15.180 4.987 15.180 4.721 C 15.179 3.887,15.037 3.164,14.761 2.580 C 14.536 2.106,14.370 1.868,13.989 1.472 C 13.392 0.852,12.687 0.465,11.841 0.293 C 11.369 0.197,10.673 0.198,10.209 0.295 M15.612 14.740 L 20.200 17.948 20.201 19.076 L 20.203 20.203 11.000 20.203 L 1.797 20.203 1.799 19.076 L 1.801 17.948 6.391 14.734 C 8.916 12.967,10.991 11.523,11.003 11.526 C 11.015 11.529,13.089 12.975,15.612 14.740 " stroke="none" fill-rule="evenodd" fill="black"></path></svg>