<svg width="22" height="21" viewBox="0 0 22 21" fill="none" xmlns="http://www.w3.org/2000/svg"><path d="M5.023 0.972 C 4.076 1.102,3.168 1.470,2.402 2.037 C 1.261 2.879,0.451 4.138,0.169 5.506 C 0.122 5.733,0.038 6.468,0.037 6.664 C 0.037 6.717,0.396 6.724,1.139 6.686 L 1.600 6.663 1.644 6.267 C 1.756 5.259,2.190 4.370,2.908 3.678 C 3.399 3.206,3.885 2.910,4.520 2.697 C 5.463 2.380,6.575 2.439,7.518 2.855 C 8.150 3.134,8.386 3.326,9.744 4.672 L 11.000 5.916 12.256 4.672 C 13.614 3.326,13.850 3.134,14.482 2.855 C 14.662 2.775,14.972 2.667,15.169 2.614 C 15.490 2.527,15.597 2.517,16.170 2.515 C 16.719 2.513,16.859 2.525,17.139 2.596 C 18.397 2.913,19.430 3.757,19.981 4.916 C 20.601 6.221,20.484 7.769,19.672 9.008 C 19.488 9.288,18.892 9.900,15.230 13.567 L 11.001 17.802 8.626 15.427 L 6.251 13.053 5.692 13.613 L 5.134 14.172 8.067 17.105 L 11.001 20.038 15.780 15.253 C 20.480 10.548,20.797 10.216,21.127 9.662 C 21.990 8.213,22.183 6.452,21.652 4.856 C 20.875 2.514,18.660 0.918,16.188 0.918 C 14.972 0.918,13.772 1.309,12.778 2.028 C 12.637 2.130,12.179 2.552,11.761 2.966 L 11.001 3.719 10.240 2.967 C 9.821 2.553,9.363 2.131,9.222 2.028 C 8.014 1.151,6.499 0.770,5.023 0.972 M4.216 7.902 L 2.915 9.203 1.476 9.203 L 0.037 9.203 0.037 9.992 L 0.037 10.780 1.806 10.780 L 3.574 10.780 4.556 9.799 L 5.537 8.819 7.534 10.816 L 9.532 12.813 10.553 11.797 L 11.574 10.780 13.084 10.780 L 14.593 10.780 14.593 9.992 L 14.593 9.203 12.769 9.203 L 10.944 9.203 10.248 9.900 L 9.552 10.597 7.737 8.790 C 6.739 7.797,5.831 6.898,5.719 6.792 L 5.517 6.601 4.216 7.902 " stroke="none" fill-rule="evenodd" fill="black"></path></svg>