<svg width="23" height="23" viewBox="0 0 23 23" fill="none" xmlns="http://www.w3.org/2000/svg"><path d="M3.613 4.265 L 0.230 7.648 0.230 15.209 L 0.230 22.770 11.251 22.770 L 22.272 22.770 22.272 16.234 L 22.272 9.698 18.764 9.698 L 15.257 9.698 15.257 10.484 L 15.257 11.270 17.978 11.270 L 20.700 11.270 20.700 16.234 L 20.700 21.198 17.250 21.198 L 13.800 21.198 13.800 14.442 L 13.800 7.686 10.398 4.284 L 6.996 0.882 3.613 4.265 M9.631 5.740 L 12.228 8.337 12.228 14.768 L 12.228 21.198 11.002 21.198 L 9.775 21.198 9.775 19.205 L 9.775 17.212 6.996 17.212 L 4.217 17.212 4.217 19.205 L 4.217 21.198 3.009 21.198 L 1.802 21.198 1.802 14.749 L 1.802 8.299 4.379 5.721 C 5.797 4.303,6.975 3.143,6.996 3.143 C 7.017 3.143,8.203 4.312,9.631 5.740 M4.025 9.986 L 4.025 10.772 6.996 10.772 L 9.967 10.772 9.967 9.986 L 9.967 9.200 6.996 9.200 L 4.025 9.200 4.025 9.986 M4.025 14.011 L 4.025 14.797 6.996 14.797 L 9.967 14.797 9.967 14.011 L 9.967 13.225 6.996 13.225 L 4.025 13.225 4.025 14.011 M8.203 19.991 L 8.203 21.198 6.996 21.198 L 5.788 21.198 5.788 19.991 L 5.788 18.783 6.996 18.783 L 8.203 18.783 8.203 19.991 " stroke="none" fill-rule="evenodd" fill="black"></path></svg>