<svg width="22" height="22" viewBox="0 0 22 22" fill="none" xmlns="http://www.w3.org/2000/svg"><path d="M9.918 0.258 C 4.864 0.814,0.959 4.627,0.287 9.662 C 0.222 10.151,0.222 11.849,0.287 12.338 C 0.670 15.210,2.119 17.751,4.389 19.534 C 5.087 20.082,6.359 20.793,7.187 21.096 C 8.003 21.396,8.829 21.602,9.662 21.713 C 10.151 21.778,11.849 21.778,12.338 21.713 C 13.584 21.547,14.644 21.223,15.785 20.662 C 17.918 19.612,19.612 17.918,20.662 15.785 C 21.109 14.877,21.391 14.064,21.572 13.163 C 21.732 12.366,21.762 12.027,21.762 11.000 C 21.762 9.973,21.732 9.634,21.572 8.837 C 21.391 7.936,21.109 7.123,20.662 6.215 C 19.332 3.513,16.981 1.536,14.043 0.648 C 13.581 0.509,13.056 0.393,12.487 0.307 C 12.053 0.241,10.365 0.208,9.918 0.258 M11.639 1.830 C 11.695 1.852,12.022 2.748,13.166 6.016 L 14.622 10.175 12.811 10.185 C 11.815 10.190,10.185 10.190,9.189 10.185 L 7.378 10.175 8.832 6.017 C 9.990 2.706,10.302 1.853,10.359 1.830 C 10.453 1.794,11.546 1.793,11.639 1.830 M8.283 2.796 C 8.162 3.144,7.531 4.946,6.882 6.802 L 5.701 10.175 3.763 10.184 L 1.825 10.194 1.850 9.983 C 2.097 7.869,3.005 5.988,4.496 4.496 C 5.494 3.499,6.610 2.797,8.012 2.287 C 8.557 2.089,8.540 2.058,8.283 2.796 M13.956 2.277 C 15.189 2.712,16.289 3.365,17.197 4.201 C 18.873 5.745,19.886 7.729,20.150 9.983 L 20.175 10.194 18.237 10.184 L 16.299 10.175 15.118 6.802 C 14.469 4.946,13.838 3.144,13.717 2.796 C 13.462 2.064,13.447 2.097,13.956 2.277 M7.100 15.822 C 8.092 18.654,8.485 19.822,8.451 19.830 C 8.384 19.845,7.831 19.656,7.398 19.471 C 5.476 18.645,3.881 17.190,2.904 15.371 C 2.325 14.292,1.992 13.235,1.850 12.017 L 1.825 11.806 3.763 11.816 L 5.701 11.825 7.100 15.822 M14.421 12.398 C 12.061 19.154,11.707 20.144,11.639 20.170 C 11.539 20.210,10.472 20.210,10.370 20.171 C 10.285 20.138,10.091 19.598,7.554 12.329 L 7.371 11.807 11.000 11.807 L 14.628 11.807 14.421 12.398 M20.150 12.018 C 19.761 15.341,17.666 18.155,14.602 19.471 C 14.169 19.656,13.616 19.845,13.549 19.830 C 13.515 19.822,13.900 18.678,14.872 15.895 C 15.627 13.737,16.260 11.935,16.280 11.889 L 16.315 11.807 18.245 11.807 L 20.175 11.807 20.150 12.018 " stroke="none" fill-rule="evenodd" fill="black"></path></svg>