<svg width="16" height="16" viewBox="0 0 16 16" fill="none" xmlns="http://www.w3.org/2000/svg"><path d="M2.667 1.333 L 2.667 2.027 2.847 2.027 C 3.152 2.027,3.547 2.060,3.547 2.086 C 3.547 2.099,3.454 2.195,3.340 2.299 C 2.715 2.873,2.182 3.463,1.874 3.921 C 1.332 4.729,0.896 5.850,0.723 6.880 C 0.622 7.482,0.628 8.577,0.735 9.200 C 0.934 10.356,1.426 11.477,2.168 12.467 C 2.412 12.792,3.296 13.663,3.638 13.915 C 4.677 14.681,5.903 15.165,7.168 15.308 C 7.609 15.358,8.874 15.328,9.228 15.259 C 10.539 15.003,11.703 14.473,12.623 13.712 C 12.985 13.412,13.587 12.797,13.821 12.487 C 15.200 10.663,15.679 8.389,15.136 6.240 C 14.881 5.230,14.368 4.191,13.746 3.425 C 13.008 2.517,12.240 1.912,11.139 1.372 C 10.141 0.882,9.320 0.704,7.820 0.650 L 7.307 0.632 7.307 1.325 L 7.307 2.018 7.887 2.051 C 9.238 2.128,9.746 2.243,10.584 2.662 C 11.291 3.016,11.707 3.307,12.175 3.773 C 12.700 4.296,12.986 4.697,13.318 5.373 C 13.742 6.235,13.871 6.739,13.908 7.667 C 13.930 8.212,13.884 8.981,13.813 9.280 C 13.728 9.634,13.581 10.064,13.423 10.416 C 12.616 12.211,11.059 13.449,9.093 13.858 C 8.749 13.930,8.703 13.933,8.013 13.932 C 7.211 13.930,7.008 13.906,6.445 13.744 C 5.350 13.430,4.424 12.877,3.694 12.101 C 2.911 11.269,2.408 10.281,2.156 9.080 C 2.085 8.742,2.056 7.731,2.105 7.304 C 2.182 6.634,2.369 6.002,2.678 5.373 C 3.032 4.652,3.397 4.173,4.071 3.543 C 4.406 3.230,4.550 3.126,4.593 3.169 C 4.613 3.189,4.628 3.347,4.635 3.600 L 4.647 4.000 5.337 4.000 L 6.027 4.000 6.027 2.320 L 6.027 0.640 4.347 0.640 L 2.667 0.640 2.667 1.333 " fill="#222838" stroke="none" fill-rule="evenodd"></path></svg>