<svg width="33" height="33" viewBox="0 0 33 33" fill="none" xmlns="http://www.w3.org/2000/svg"><path d="M7.873 0.113 C 7.483 0.183,6.796 0.545,6.398 0.891 C 5.795 1.413,2.457 4.701,1.613 5.603 C 0.665 6.616,0.397 6.983,0.211 7.520 C 0.099 7.846,0.083 7.993,0.085 8.690 C 0.090 10.151,0.173 10.266,4.001 14.139 L 6.098 16.260 5.024 17.329 C 3.355 18.989,1.180 21.255,0.818 21.711 C 0.231 22.450,0.039 22.974,0.037 23.843 C 0.034 24.911,0.314 25.511,1.331 26.620 C 2.233 27.603,4.895 30.271,5.847 31.144 C 6.714 31.941,7.001 32.138,7.563 32.322 C 8.125 32.506,9.022 32.530,9.543 32.375 C 10.252 32.163,10.464 31.994,12.450 30.056 C 14.363 28.189,27.870 14.672,30.177 12.316 C 31.517 10.948,32.054 10.294,32.196 9.861 C 32.546 8.792,32.400 7.611,31.811 6.750 C 31.315 6.024,26.617 1.307,25.831 0.747 C 25.042 0.184,24.375 0.008,23.412 0.110 C 22.532 0.204,22.201 0.343,21.560 0.892 C 21.333 1.087,20.038 2.343,18.683 3.685 L 16.218 6.125 14.283 4.200 C 10.849 0.785,10.573 0.545,9.756 0.264 C 9.235 0.084,8.406 0.018,7.873 0.113 M10.398 5.376 C 14.373 9.376,14.881 9.965,15.613 11.427 C 16.610 13.415,16.954 15.611,16.630 17.930 C 16.366 19.830,15.510 21.700,14.245 23.144 C 13.686 23.782,12.072 25.469,10.130 27.445 L 8.644 28.957 6.099 26.418 L 3.555 23.878 5.720 21.688 C 8.948 18.422,9.268 18.051,9.485 17.325 C 9.605 16.926,9.654 15.957,9.577 15.537 C 9.475 14.985,9.141 14.396,8.564 13.750 C 8.280 13.432,7.043 12.158,5.815 10.918 L 3.583 8.662 6.095 6.146 C 7.477 4.762,8.620 3.630,8.635 3.630 C 8.651 3.630,9.444 4.416,10.398 5.376 M26.313 6.111 C 27.692 7.476,28.820 8.615,28.820 8.643 C 28.820 8.670,26.933 10.588,24.626 12.905 L 20.433 17.117 20.398 16.080 C 20.358 14.876,20.245 14.019,19.989 12.980 C 19.704 11.818,19.200 10.452,18.665 9.389 L 18.475 9.012 19.092 8.370 C 20.376 7.033,23.734 3.631,23.770 3.630 C 23.790 3.630,24.935 4.747,26.313 6.111 " fill="#8940FD" stroke="none" fill-rule="evenodd"></path></svg>