<svg width="14" height="16" viewBox="0 0 14 16" fill="none" xmlns="http://www.w3.org/2000/svg"><path d="M1.703 0.315 C 1.703 0.322,2.240 1.131,2.895 2.114 C 3.550 3.097,4.092 3.916,4.099 3.933 C 4.106 3.953,3.354 4.848,2.206 6.188 L 0.301 8.410 0.309 10.126 C 0.316 11.810,0.317 11.846,0.369 12.095 C 0.529 12.854,0.862 13.513,1.363 14.060 C 2.040 14.799,2.945 15.249,3.963 15.352 C 4.293 15.386,9.707 15.386,10.037 15.352 C 11.055 15.249,11.960 14.799,12.637 14.060 C 13.138 13.513,13.471 12.853,13.630 12.095 C 13.683 11.847,13.684 11.808,13.691 10.126 L 13.699 8.410 11.794 6.188 C 10.646 4.848,9.894 3.953,9.901 3.933 C 9.908 3.916,10.450 3.097,11.105 2.114 C 11.760 1.131,12.297 0.322,12.297 0.315 C 12.297 0.309,9.913 0.303,7.000 0.303 C 4.087 0.303,1.703 0.309,1.703 0.315 M9.662 1.744 C 9.650 1.767,9.410 2.126,9.131 2.543 L 8.622 3.302 7.000 3.302 L 5.378 3.302 4.869 2.543 C 4.590 2.126,4.350 1.767,4.338 1.744 C 4.316 1.705,4.450 1.703,7.000 1.703 C 9.550 1.703,9.684 1.705,9.662 1.744 M10.495 6.820 L 12.298 8.925 12.291 10.337 L 12.283 11.748 12.222 11.974 C 12.060 12.568,11.715 13.088,11.248 13.442 C 11.049 13.593,10.634 13.798,10.383 13.869 C 10.014 13.973,9.912 13.977,7.000 13.977 C 4.088 13.977,3.986 13.973,3.617 13.869 C 3.366 13.798,2.951 13.593,2.752 13.442 C 2.285 13.088,1.940 12.568,1.778 11.974 L 1.717 11.748 1.709 10.337 L 1.702 8.925 3.505 6.820 L 5.308 4.715 7.000 4.715 L 8.692 4.715 10.495 6.820 M6.300 6.427 L 6.300 6.880 6.126 6.881 C 5.527 6.884,4.993 7.293,4.841 7.864 C 4.793 8.045,4.794 8.738,4.842 8.924 C 4.898 9.138,5.013 9.330,5.192 9.508 C 5.464 9.781,5.351 9.742,7.706 10.385 L 7.793 10.408 7.793 10.746 L 7.793 11.083 7.000 11.083 L 6.207 11.083 6.207 10.908 L 6.207 10.733 5.507 10.733 L 4.807 10.733 4.807 11.043 C 4.807 11.473,4.876 11.700,5.087 11.964 C 5.318 12.255,5.687 12.436,6.119 12.472 L 6.300 12.487 6.300 12.929 L 6.300 13.370 7.000 13.370 L 7.700 13.370 7.700 12.929 L 7.700 12.487 7.881 12.472 C 8.080 12.456,8.337 12.388,8.481 12.315 C 8.726 12.189,8.948 11.966,9.066 11.725 C 9.181 11.490,9.193 11.398,9.193 10.740 C 9.193 10.154,9.191 10.122,9.136 9.947 C 9.042 9.653,8.859 9.418,8.584 9.240 C 8.406 9.125,8.395 9.121,7.210 8.798 L 6.218 8.527 6.211 8.405 L 6.204 8.283 6.998 8.283 L 7.791 8.283 7.798 8.453 L 7.805 8.622 8.499 8.628 L 9.193 8.634 9.193 8.313 C 9.193 7.816,9.098 7.554,8.820 7.280 C 8.558 7.022,8.228 6.883,7.874 6.881 L 7.700 6.880 7.700 6.427 L 7.700 5.973 7.000 5.973 L 6.300 5.973 6.300 6.427 " fill="#222838" stroke="none" fill-rule="evenodd"></path></svg>