<svg width="22" height="22" viewBox="0 0 22 22" fill="none" xmlns="http://www.w3.org/2000/svg"><path d="M10.065 0.243 C 7.447 0.509,5.174 1.572,3.373 3.373 C 1.734 5.012,0.686 7.084,0.322 9.405 C 0.213 10.102,0.203 11.802,0.305 12.485 C 1.022 17.309,4.693 20.980,9.515 21.695 C 10.142 21.788,11.858 21.788,12.485 21.695 C 17.308 20.980,20.980 17.308,21.695 12.485 C 21.746 12.143,21.760 11.813,21.760 11.000 C 21.760 10.187,21.746 9.857,21.695 9.515 C 20.985 4.731,17.357 1.066,12.595 0.324 C 12.228 0.267,11.898 0.247,11.165 0.239 C 10.641 0.233,10.146 0.235,10.065 0.243 M12.320 1.888 C 14.936 2.280,17.245 3.758,18.710 5.977 C 19.017 6.440,19.488 7.391,19.675 7.920 C 19.852 8.425,20.032 9.151,20.116 9.698 C 20.210 10.316,20.210 11.684,20.116 12.302 C 19.966 13.288,19.698 14.141,19.252 15.052 C 18.790 15.996,18.281 16.712,17.535 17.467 C 16.784 18.227,16.015 18.780,15.052 19.252 C 14.141 19.698,13.288 19.966,12.302 20.116 C 11.684 20.210,10.316 20.210,9.698 20.116 C 9.151 20.032,8.425 19.852,7.920 19.675 C 7.391 19.489,6.441 19.017,5.977 18.711 C 3.914 17.349,2.459 15.214,1.984 12.852 C 1.846 12.165,1.816 11.836,1.816 11.000 C 1.816 10.164,1.846 9.835,1.984 9.148 C 2.527 6.446,4.343 4.066,6.823 2.805 C 7.934 2.240,8.920 1.959,10.285 1.819 C 10.600 1.787,11.952 1.832,12.320 1.888 M5.207 11.000 L 5.207 11.990 5.995 11.990 L 6.783 11.990 6.783 11.000 L 6.783 10.010 5.995 10.010 L 5.207 10.010 5.207 11.000 M10.193 11.000 L 10.193 11.990 11.000 11.990 L 11.807 11.990 11.807 11.000 L 11.807 10.010 11.000 10.010 L 10.193 10.010 10.193 11.000 M15.217 11.000 L 15.217 11.990 16.005 11.990 L 16.793 11.990 16.793 11.000 L 16.793 10.010 16.005 10.010 L 15.217 10.010 15.217 11.000 " stroke="none" fill-rule="evenodd" fill="black"></path></svg>