<svg width="22" height="22" viewBox="0 0 22 22" fill="none" xmlns="http://www.w3.org/2000/svg"><path d="M5.565 0.256 C 5.177 0.326,4.631 0.556,4.308 0.786 C 2.993 1.723,2.556 3.458,3.273 4.895 C 3.668 5.686,4.384 6.282,5.262 6.550 C 5.561 6.641,5.645 6.651,6.160 6.651 C 6.673 6.651,6.760 6.641,7.051 6.552 C 7.660 6.365,8.110 6.086,8.528 5.635 C 9.094 5.027,9.389 4.276,9.390 3.443 C 9.390 3.244,9.373 2.984,9.351 2.865 C 9.140 1.704,8.289 0.735,7.150 0.361 C 6.836 0.257,6.750 0.245,6.270 0.235 C 5.978 0.229,5.660 0.238,5.565 0.256 M6.497 1.838 C 6.966 1.936,7.405 2.274,7.621 2.702 C 8.118 3.687,7.498 4.891,6.407 5.060 C 5.900 5.138,5.424 4.985,5.045 4.620 C 4.639 4.231,4.483 3.780,4.553 3.199 C 4.662 2.291,5.584 1.645,6.497 1.838 M1.815 10.643 L 0.202 14.062 0.202 17.527 L 0.202 20.992 0.999 21.002 L 1.797 21.011 1.797 17.741 L 1.797 14.470 2.888 12.149 C 3.487 10.872,3.991 9.827,4.007 9.827 C 4.023 9.827,4.553 10.272,5.185 10.817 L 6.335 11.807 8.493 11.798 L 10.652 11.788 10.652 11.000 L 10.652 10.212 8.782 10.202 L 6.912 10.193 5.188 8.709 C 4.240 7.892,3.457 7.225,3.447 7.225 C 3.437 7.225,2.702 8.763,1.815 10.643 M7.609 15.363 L 7.060 15.912 7.224 16.086 C 7.315 16.181,7.747 16.627,8.186 17.076 L 8.983 17.893 8.983 19.855 L 8.983 21.817 12.302 21.817 L 15.620 21.817 15.620 18.883 L 15.620 15.950 14.832 15.950 L 14.043 15.950 14.043 18.077 L 14.043 20.203 12.320 20.203 L 10.597 20.203 10.597 18.730 L 10.597 17.257 10.038 16.686 C 8.888 15.510,8.195 14.813,8.177 14.813 C 8.166 14.813,7.911 15.061,7.609 15.363 M18.693 16.318 C 17.597 16.446,16.694 17.230,16.383 18.322 C 16.319 18.546,16.301 18.704,16.301 19.048 C 16.301 19.736,16.463 20.207,16.880 20.741 C 17.609 21.673,18.806 22.024,19.957 21.644 C 20.693 21.400,21.400 20.694,21.643 19.959 C 22.083 18.628,21.546 17.274,20.311 16.596 C 19.889 16.365,19.243 16.254,18.693 16.318 M19.384 17.948 C 20.111 18.164,20.418 19.042,19.992 19.683 C 19.493 20.436,18.371 20.339,17.991 19.511 C 17.879 19.267,17.881 18.824,17.997 18.572 C 18.238 18.043,18.821 17.781,19.384 17.948 " stroke="none" fill-rule="evenodd" fill="black"></path></svg>