<svg width="12" height="16" viewBox="0 0 12 16" fill="none" xmlns="http://www.w3.org/2000/svg"><path d="M5.460 0.662 C 4.111 0.811,2.870 1.467,2.020 2.482 C 1.039 3.653,0.618 5.145,0.852 6.620 C 1.119 8.301,2.347 10.641,4.356 13.300 C 4.937 14.068,5.946 15.290,6.000 15.290 C 6.054 15.290,7.054 14.079,7.643 13.300 C 9.659 10.635,10.874 8.316,11.151 6.600 C 11.354 5.342,11.053 4.015,10.318 2.930 C 9.592 1.860,8.503 1.098,7.260 0.792 C 7.100 0.753,6.875 0.707,6.760 0.689 C 6.510 0.651,5.711 0.634,5.460 0.662 M6.537 2.071 C 7.566 2.221,8.470 2.765,9.086 3.605 C 9.681 4.416,9.936 5.486,9.762 6.440 C 9.504 7.856,8.486 9.799,6.804 12.090 C 6.392 12.650,6.018 13.123,5.993 13.115 C 5.957 13.103,5.318 12.264,4.922 11.710 C 3.311 9.452,2.392 7.602,2.210 6.250 C 2.087 5.340,2.370 4.319,2.961 3.540 C 3.561 2.748,4.450 2.224,5.450 2.071 C 5.702 2.033,6.275 2.033,6.537 2.071 M5.600 4.258 C 4.898 4.413,4.359 4.926,4.156 5.632 C 4.117 5.768,4.111 5.836,4.111 6.120 C 4.111 6.404,4.117 6.472,4.156 6.608 C 4.252 6.942,4.424 7.238,4.653 7.465 C 4.890 7.699,5.151 7.855,5.471 7.953 C 5.637 8.003,5.675 8.007,6.000 8.007 C 6.323 8.007,6.363 8.003,6.526 7.954 C 6.858 7.852,7.127 7.688,7.362 7.447 C 7.595 7.207,7.748 6.941,7.844 6.608 C 7.883 6.472,7.889 6.404,7.889 6.120 C 7.889 5.751,7.861 5.610,7.731 5.328 C 7.495 4.817,7.028 4.422,6.490 4.278 C 6.259 4.216,5.832 4.207,5.600 4.258 M6.210 5.658 C 6.311 5.705,6.428 5.827,6.471 5.929 C 6.545 6.106,6.496 6.340,6.358 6.478 C 6.042 6.795,5.496 6.569,5.496 6.122 C 5.496 5.982,5.539 5.874,5.636 5.773 C 5.740 5.664,5.843 5.621,6.000 5.621 C 6.085 5.621,6.158 5.634,6.210 5.658 " stroke="none" fill-rule="evenodd" fill="black"></path></svg>