<svg width="16" height="14" viewBox="0 0 16 14" fill="none" xmlns="http://www.w3.org/2000/svg"><path d="M8.864 0.913 C 8.767 1.064,8.683 1.192,8.677 1.197 C 8.672 1.203,8.538 1.123,8.381 1.018 C 8.158 0.871,8.087 0.835,8.064 0.861 C 8.018 0.911,0.773 11.923,0.774 11.943 C 0.774 11.952,0.900 12.042,1.054 12.142 L 1.333 12.323 1.333 12.668 L 1.333 13.013 8.000 13.013 L 14.667 13.013 14.667 12.667 L 14.667 12.320 15.013 12.320 L 15.360 12.320 15.360 12.163 C 15.360 11.847,15.304 11.042,15.250 10.600 C 14.923 7.878,13.779 5.299,11.952 3.164 C 11.451 2.578,10.613 1.784,9.947 1.262 C 9.697 1.067,9.092 0.640,9.064 0.640 C 9.051 0.640,8.961 0.763,8.864 0.913 M9.205 2.446 C 10.207 3.236,11.128 4.236,11.831 5.293 C 13.004 7.060,13.688 8.940,13.907 11.004 C 13.928 11.207,13.946 11.436,13.946 11.513 L 13.947 11.653 13.322 11.653 C 12.978 11.653,12.691 11.644,12.684 11.633 C 12.677 11.621,12.657 11.462,12.640 11.279 C 12.444 9.147,11.659 7.145,10.337 5.413 C 9.854 4.779,9.116 4.022,8.492 3.519 C 8.310 3.372,8.160 3.245,8.160 3.238 C 8.160 3.211,8.840 2.187,8.858 2.187 C 8.868 2.187,9.024 2.303,9.205 2.446 M7.675 4.636 C 9.349 5.994,10.596 8.020,11.066 10.145 C 11.151 10.531,11.240 11.095,11.267 11.433 L 11.286 11.653 10.311 11.653 C 9.406 11.653,9.336 11.650,9.324 11.607 C 9.317 11.581,9.296 11.494,9.278 11.413 C 9.113 10.685,8.514 10.035,7.768 9.774 C 7.299 9.610,6.701 9.610,6.232 9.774 C 5.486 10.035,4.886 10.686,4.722 11.413 C 4.704 11.494,4.683 11.581,4.676 11.607 C 4.664 11.650,4.592 11.653,3.652 11.653 C 3.061 11.653,2.640 11.643,2.640 11.629 C 2.640 11.611,4.478 8.799,4.523 8.749 C 4.528 8.744,4.607 8.773,4.699 8.814 C 4.972 8.937,5.215 8.992,5.547 9.006 C 5.898 9.021,6.161 8.988,6.433 8.893 C 7.209 8.622,7.775 7.989,7.964 7.182 C 8.023 6.933,8.029 6.416,7.976 6.173 C 7.882 5.741,7.649 5.323,7.317 4.991 L 7.122 4.796 7.245 4.611 C 7.313 4.510,7.379 4.427,7.392 4.427 C 7.406 4.427,7.533 4.521,7.675 4.636 M6.549 6.263 C 6.639 6.451,6.663 6.731,6.605 6.927 C 6.494 7.296,6.192 7.564,5.816 7.624 C 5.652 7.651,5.374 7.625,5.328 7.579 C 5.316 7.567,5.476 7.299,5.683 6.985 C 5.891 6.671,6.126 6.312,6.206 6.189 L 6.351 5.965 6.415 6.042 C 6.450 6.085,6.510 6.184,6.549 6.263 M7.212 11.054 C 7.334 11.074,7.494 11.151,7.620 11.250 C 7.710 11.321,7.893 11.572,7.893 11.625 C 7.893 11.645,7.622 11.653,7.000 11.653 C 6.378 11.653,6.107 11.645,6.107 11.625 C 6.107 11.572,6.290 11.321,6.380 11.250 C 6.516 11.143,6.677 11.069,6.832 11.043 C 6.972 11.019,7.009 11.020,7.212 11.054 " stroke="none" fill-rule="evenodd" fill="black"></path></svg>