<svg width="22" height="16" viewBox="0 0 22 16" fill="none" xmlns="http://www.w3.org/2000/svg"><path d="M10.193 1.114 L 10.193 2.228 9.836 2.272 C 6.074 2.739,2.958 5.271,1.731 8.855 C 1.377 9.888,1.211 10.956,1.210 12.201 L 1.210 12.797 11.000 12.797 L 20.790 12.797 20.790 12.201 C 20.790 11.873,20.773 11.415,20.753 11.183 C 20.478 8.021,18.736 5.224,16.023 3.592 C 14.885 2.907,13.522 2.441,12.164 2.272 L 11.807 2.228 11.807 1.114 L 11.807 0.000 11.000 0.000 L 10.193 0.000 10.193 1.114 M11.750 3.833 C 11.931 3.845,12.253 3.886,12.465 3.925 C 15.820 4.531,18.491 7.213,19.068 10.554 C 19.108 10.783,19.140 11.018,19.140 11.077 L 19.140 11.183 11.000 11.183 L 2.860 11.183 2.860 11.061 C 2.860 10.662,3.134 9.574,3.396 8.931 C 4.592 6.000,7.342 4.005,10.450 3.815 C 10.900 3.787,11.094 3.790,11.750 3.833 M0.000 14.978 L 0.000 15.767 11.000 15.767 L 22.000 15.767 22.000 14.978 L 22.000 14.190 11.000 14.190 L 0.000 14.190 0.000 14.978 " stroke="none" fill-rule="evenodd" fill="black"></path></svg>