<svg width="14" height="16" viewBox="0 0 14 16" fill="none" xmlns="http://www.w3.org/2000/svg"><path d="M0.303 8.251 L 0.303 15.872 0.391 15.795 C 0.439 15.753,1.106 15.166,1.874 14.492 C 2.641 13.817,3.277 13.262,3.288 13.258 C 3.298 13.255,3.834 13.793,4.479 14.454 C 5.124 15.116,5.658 15.657,5.667 15.657 C 5.676 15.657,6.207 15.119,6.848 14.461 C 7.489 13.803,8.021 13.262,8.030 13.258 C 8.040 13.254,8.717 13.839,9.536 14.559 L 11.025 15.868 11.031 11.621 L 11.037 7.373 12.367 7.373 L 13.697 7.373 13.697 4.002 L 13.697 0.630 7.000 0.630 L 0.303 0.630 0.303 8.251 M12.297 4.002 L 12.297 5.973 11.667 5.973 L 11.037 5.973 11.037 4.655 L 11.037 3.337 10.337 3.337 L 9.637 3.337 9.637 8.050 C 9.637 10.642,9.631 12.763,9.625 12.763 C 9.618 12.763,9.243 12.438,8.791 12.040 L 7.968 11.316 7.535 11.754 C 7.297 11.995,6.780 12.522,6.386 12.927 L 5.670 13.662 5.255 13.242 C 5.026 13.011,4.509 12.482,4.105 12.067 L 3.370 11.313 2.560 12.025 C 2.115 12.417,1.740 12.744,1.727 12.752 C 1.711 12.761,1.703 10.991,1.703 7.398 L 1.703 2.030 7.000 2.030 L 12.297 2.030 12.297 4.002 M4.970 3.593 L 4.970 4.037 4.836 4.037 C 4.209 4.039,3.640 4.475,3.498 5.063 C 3.457 5.230,3.456 5.871,3.496 6.043 C 3.578 6.403,3.857 6.757,4.182 6.917 C 4.300 6.975,4.669 7.087,5.402 7.287 L 6.452 7.573 6.458 7.905 L 6.465 8.237 5.671 8.237 L 4.877 8.237 4.877 8.062 L 4.877 7.887 4.161 7.887 L 3.446 7.887 3.461 8.207 C 3.486 8.727,3.566 8.936,3.848 9.219 C 4.114 9.487,4.465 9.637,4.822 9.637 L 4.970 9.637 4.970 10.092 L 4.970 10.547 5.664 10.541 L 6.358 10.535 6.365 10.086 L 6.371 9.637 6.518 9.637 C 6.708 9.637,6.988 9.565,7.171 9.469 C 7.385 9.356,7.627 9.106,7.729 8.890 C 7.849 8.636,7.863 8.534,7.863 7.902 C 7.863 7.299,7.848 7.182,7.737 6.942 C 7.621 6.688,7.323 6.407,7.058 6.301 C 6.994 6.275,6.495 6.133,5.950 5.985 C 5.405 5.836,4.940 5.710,4.918 5.703 C 4.885 5.693,4.877 5.664,4.877 5.563 L 4.877 5.437 5.670 5.437 L 6.463 5.437 6.463 5.612 L 6.463 5.787 7.163 5.787 L 7.863 5.787 7.863 5.496 C 7.863 5.147,7.838 5.014,7.729 4.783 C 7.524 4.349,7.014 4.039,6.504 4.037 L 6.370 4.037 6.370 3.593 L 6.370 3.150 5.670 3.150 L 4.970 3.150 4.970 3.593 " fill="#343846" stroke="none" fill-rule="evenodd"></path></svg>