<svg width="23" height="22" viewBox="0 0 23 22" fill="none" xmlns="http://www.w3.org/2000/svg"><path d="M11.327 0.232 C 6.132 0.546,1.891 4.565,1.280 9.752 C 1.201 10.429,1.203 11.646,1.284 12.287 C 1.509 14.055,2.088 15.602,3.073 17.068 C 3.250 17.331,3.291 17.419,3.263 17.472 C 3.243 17.509,2.630 18.494,1.901 19.660 C 1.172 20.826,0.575 21.788,0.575 21.798 C 0.575 21.808,3.339 21.809,6.718 21.801 C 13.267 21.785,13.039 21.791,14.050 21.602 C 15.568 21.317,17.201 20.593,18.452 19.649 C 20.888 17.812,22.376 15.201,22.735 12.132 C 22.792 11.639,22.792 10.364,22.735 9.871 C 22.500 7.869,21.794 6.070,20.644 4.545 C 18.429 1.609,14.979 0.011,11.327 0.232 M13.376 1.898 C 17.390 2.528,20.484 5.633,21.109 9.660 C 21.160 9.990,21.178 10.327,21.178 11.002 C 21.178 11.676,21.160 12.013,21.109 12.343 C 20.867 13.902,20.275 15.303,19.315 16.586 C 18.954 17.069,18.066 17.957,17.583 18.319 C 16.555 19.087,15.457 19.618,14.277 19.916 C 13.188 20.192,13.495 20.178,8.210 20.192 C 4.332 20.202,3.449 20.195,3.472 20.155 C 3.487 20.128,3.895 19.472,4.379 18.697 L 5.257 17.288 5.089 17.087 C 3.559 15.256,2.804 13.257,2.799 11.021 C 2.790 6.309,6.337 2.358,11.040 1.842 C 11.516 1.790,12.900 1.823,13.376 1.898 " stroke="none" fill-rule="evenodd" fill="black"></path></svg>