<svg width="16" height="16" viewBox="0 0 16 16" fill="none" xmlns="http://www.w3.org/2000/svg"><path d="M6.787 0.656 C 5.889 0.750,5.119 0.967,4.373 1.336 C 2.569 2.231,1.277 3.852,0.818 5.800 C 0.686 6.360,0.654 6.658,0.654 7.333 C 0.654 8.194,0.741 8.733,1.005 9.503 C 1.817 11.882,3.864 13.574,6.400 13.965 C 6.830 14.031,7.837 14.031,8.267 13.965 C 9.412 13.789,10.550 13.312,11.383 12.660 L 11.554 12.527 13.030 14.003 L 14.507 15.480 14.993 14.993 L 15.480 14.507 14.003 13.030 L 12.527 11.554 12.660 11.383 C 13.312 10.551,13.790 9.408,13.965 8.267 C 14.031 7.837,14.031 6.829,13.965 6.400 C 13.723 4.824,12.998 3.455,11.841 2.390 C 10.880 1.505,9.628 0.911,8.293 0.706 C 8.024 0.665,7.024 0.632,6.787 0.656 M8.160 2.094 C 9.644 2.337,10.913 3.153,11.754 4.403 C 12.176 5.031,12.480 5.836,12.589 6.613 C 12.609 6.753,12.625 7.077,12.625 7.333 C 12.625 7.590,12.609 7.914,12.589 8.053 C 12.320 9.968,11.062 11.561,9.253 12.276 C 8.618 12.528,8.091 12.623,7.333 12.623 C 6.576 12.623,6.049 12.528,5.413 12.276 C 2.520 11.132,1.216 7.819,2.560 5.025 C 3.352 3.379,4.969 2.246,6.800 2.054 C 7.110 2.021,7.852 2.043,8.160 2.094 " stroke="none" fill-rule="evenodd" fill="black"></path></svg>