<svg width="20" height="23" viewBox="0 0 20 23" fill="none" xmlns="http://www.w3.org/2000/svg"><path d="M7.683 3.200 L 5.950 4.933 6.508 5.492 L 7.067 6.050 8.133 4.983 L 9.200 3.917 9.200 9.459 L 9.200 15.000 10.000 15.000 L 10.800 15.000 10.800 9.459 L 10.800 3.917 11.867 4.983 L 12.933 6.050 13.492 5.491 L 14.050 4.933 12.309 3.192 L 10.567 1.451 10.284 1.733 L 10.000 2.015 9.724 1.741 C 9.573 1.590,9.441 1.467,9.433 1.467 C 9.424 1.467,8.637 2.247,7.683 3.200 M0.700 14.500 L 0.700 22.800 10.000 22.800 L 19.300 22.800 19.300 14.500 L 19.300 6.200 17.400 6.200 L 15.500 6.200 15.500 7.000 L 15.500 7.800 16.600 7.800 L 17.700 7.800 17.700 14.500 L 17.700 21.200 10.000 21.200 L 2.300 21.200 2.300 14.500 L 2.300 7.800 3.400 7.800 L 4.500 7.800 4.500 7.000 L 4.500 6.200 2.600 6.200 L 0.700 6.200 0.700 14.500 " stroke="none" fill-rule="evenodd" fill="black"></path></svg>