<svg width="20" height="22" viewBox="0 0 20 22" fill="none" xmlns="http://www.w3.org/2000/svg"><path d="M1.408 2.416 L 0.300 4.633 0.658 4.815 L 1.017 4.997 0.608 4.998 L 0.200 5.000 0.200 5.975 C 0.200 7.038,0.235 7.548,0.334 7.933 C 0.504 8.597,0.799 9.125,1.282 9.628 C 2.769 11.178,5.250 11.165,6.745 9.601 L 7.000 9.334 7.255 9.601 C 8.762 11.178,11.238 11.178,12.745 9.601 L 13.000 9.334 13.255 9.601 C 13.912 10.288,14.708 10.673,15.659 10.763 C 17.508 10.937,19.203 9.741,19.666 7.933 C 19.765 7.548,19.800 7.038,19.800 5.975 L 19.800 5.000 19.392 4.998 L 18.983 4.997 19.342 4.815 L 19.700 4.633 18.592 2.416 L 17.484 0.200 10.000 0.200 L 2.516 0.200 1.408 2.416 M17.109 2.983 C 17.434 3.634,17.700 4.174,17.700 4.183 C 17.700 4.193,14.235 4.200,10.000 4.200 C 5.765 4.200,2.300 4.193,2.300 4.183 C 2.300 4.174,2.566 3.634,2.891 2.983 L 3.483 1.800 10.000 1.800 L 16.517 1.800 17.109 2.983 M18.200 6.558 C 18.199 7.393,18.172 7.584,18.005 7.928 C 17.879 8.189,17.793 8.312,17.587 8.528 C 17.293 8.835,16.911 9.059,16.522 9.150 C 16.258 9.213,15.742 9.213,15.478 9.150 C 14.569 8.936,13.803 8.027,13.800 7.158 L 13.800 7.000 13.000 7.000 L 12.200 7.000 12.199 7.158 C 12.198 7.368,12.152 7.570,12.044 7.833 C 11.778 8.481,11.186 8.994,10.522 9.150 C 10.258 9.213,9.742 9.213,9.478 9.150 C 8.569 8.936,7.803 8.027,7.800 7.158 L 7.800 7.000 7.000 7.000 L 6.200 7.000 6.200 7.158 C 6.199 7.475,6.044 7.929,5.832 8.239 C 5.536 8.672,5.016 9.034,4.522 9.150 C 4.258 9.213,3.742 9.213,3.478 9.150 C 2.841 9.000,2.239 8.494,1.969 7.883 C 1.826 7.559,1.801 7.360,1.800 6.558 L 1.800 5.800 10.000 5.800 L 18.200 5.800 18.200 6.558 M1.200 16.650 L 1.200 21.300 10.000 21.300 L 18.800 21.300 18.800 16.650 L 18.800 12.000 18.000 12.000 L 17.200 12.000 17.200 15.850 L 17.200 19.700 14.500 19.700 L 11.800 19.700 11.800 15.850 L 11.800 12.000 11.000 12.000 L 10.200 12.000 10.200 13.600 L 10.200 15.200 6.500 15.200 L 2.800 15.200 2.800 13.600 L 2.800 12.000 2.000 12.000 L 1.200 12.000 1.200 16.650 M10.200 18.250 L 10.200 19.700 6.500 19.700 L 2.800 19.700 2.800 18.250 L 2.800 16.800 6.500 16.800 L 10.200 16.800 10.200 18.250 " stroke="none" fill-rule="evenodd" fill="black"></path></svg>