<svg width="22" height="22" viewBox="0 0 22 22" fill="none" xmlns="http://www.w3.org/2000/svg"><path d="M9.000 3.438 L 7.019 6.838 3.583 7.700 C 1.693 8.174,0.147 8.572,0.147 8.584 C 0.147 8.597,1.170 9.758,2.420 11.165 C 3.939 12.874,4.693 13.748,4.692 13.800 C 4.691 13.843,4.438 15.644,4.128 17.802 C 3.819 19.960,3.570 21.730,3.576 21.737 C 3.582 21.744,5.255 20.979,7.293 20.038 L 11.000 18.328 14.707 20.038 C 16.745 20.979,18.418 21.744,18.424 21.737 C 18.430 21.730,18.181 19.960,17.872 17.802 C 17.562 15.644,17.309 13.843,17.308 13.800 C 17.307 13.748,18.062 12.873,19.581 11.164 C 20.832 9.756,21.843 8.593,21.827 8.579 C 21.811 8.565,20.289 8.178,18.443 7.718 C 16.598 7.259,15.063 6.870,15.032 6.854 C 15.001 6.838,14.085 5.298,12.997 3.432 C 11.909 1.565,11.010 0.038,11.000 0.038 C 10.990 0.038,10.090 1.568,9.000 3.438 " fill="#12161E" stroke="none" fill-rule="evenodd"></path></svg>