<svg width="16" height="14" viewBox="0 0 16 14" fill="none" xmlns="http://www.w3.org/2000/svg"><path d="M3.867 1.004 C 3.071 1.130,2.454 1.410,1.907 1.893 C 1.291 2.435,0.904 3.100,0.717 3.936 C 0.660 4.190,0.658 4.263,0.647 5.933 C 0.640 7.069,0.646 7.782,0.665 8.002 C 0.753 9.002,1.161 9.865,1.870 10.548 C 2.653 11.302,3.583 11.678,4.667 11.680 L 5.027 11.680 6.027 12.680 L 7.026 13.680 9.360 13.680 C 11.208 13.679,11.743 13.671,11.933 13.642 C 13.148 13.456,14.179 12.751,14.817 11.671 C 15.091 11.208,15.279 10.612,15.333 10.040 C 15.369 9.648,15.369 5.018,15.333 4.627 C 15.161 2.787,13.763 1.305,11.933 1.024 C 11.737 0.994,10.991 0.988,7.813 0.991 C 5.679 0.993,3.903 0.999,3.867 1.004 M11.552 2.374 C 12.700 2.483,13.592 3.241,13.899 4.369 C 13.946 4.541,13.956 4.674,13.967 5.213 C 13.980 5.916,13.957 6.185,13.849 6.560 C 13.503 7.760,12.558 8.636,11.313 8.909 C 11.071 8.963,10.960 8.967,9.680 8.978 L 8.307 8.990 7.307 7.989 L 6.307 6.987 5.343 6.987 C 4.813 6.987,4.257 6.974,4.109 6.959 C 3.519 6.898,3.068 6.674,2.648 6.232 C 1.817 5.356,1.817 3.977,2.648 3.102 C 3.054 2.674,3.526 2.433,4.067 2.376 C 4.381 2.343,11.205 2.341,11.552 2.374 M3.893 4.493 L 3.893 5.440 4.840 5.440 L 5.787 5.440 5.787 4.493 L 5.787 3.547 4.840 3.547 L 3.893 3.547 3.893 4.493 M2.268 7.721 C 2.540 7.906,2.826 8.049,3.133 8.154 C 3.616 8.319,3.688 8.327,4.735 8.339 L 5.698 8.351 6.695 9.349 L 7.693 10.347 9.383 10.347 C 10.790 10.347,11.119 10.340,11.343 10.305 C 12.007 10.201,12.579 9.993,13.140 9.650 C 13.360 9.514,13.693 9.262,13.800 9.147 C 13.844 9.100,13.902 9.050,13.930 9.035 C 13.978 9.009,13.979 9.027,13.967 9.551 C 13.956 9.986,13.943 10.134,13.898 10.298 C 13.595 11.423,12.700 12.184,11.552 12.293 C 11.391 12.308,10.473 12.320,9.453 12.320 L 7.640 12.320 6.640 11.320 L 5.640 10.320 5.187 10.320 C 4.937 10.320,4.605 10.308,4.448 10.293 C 3.301 10.184,2.391 9.410,2.104 8.298 C 2.052 8.098,2.002 7.573,2.035 7.573 C 2.044 7.573,2.149 7.640,2.268 7.721 " stroke="none" fill-rule="evenodd" fill="black"></path></svg>