<svg width="22" height="22" viewBox="0 0 22 22" fill="none" xmlns="http://www.w3.org/2000/svg"><path d="M0.220 11.055 L 0.220 21.890 4.455 21.890 L 8.690 21.890 8.690 18.563 L 8.690 15.235 14.988 13.794 C 18.451 13.002,21.396 12.328,21.532 12.297 L 21.780 12.241 21.780 8.999 L 21.780 5.757 14.575 5.757 L 7.370 5.757 7.370 3.777 L 7.370 1.797 12.063 1.797 L 16.757 1.797 16.757 1.008 L 16.757 0.220 8.488 0.220 L 0.220 0.220 0.220 11.055 M5.793 3.777 L 5.793 5.757 3.795 5.757 L 1.797 5.757 1.797 3.777 L 1.797 1.797 3.795 1.797 L 5.793 1.797 5.793 3.777 M20.185 9.163 L 20.185 10.975 13.970 12.398 C 10.552 13.180,7.602 13.856,7.416 13.898 L 7.077 13.976 7.077 17.145 L 7.077 20.313 4.437 20.313 L 1.797 20.313 1.797 13.823 L 1.797 7.333 10.991 7.342 L 20.185 7.352 20.185 9.163 M17.956 17.049 L 16.683 18.999 16.683 19.236 C 16.683 20.620,17.834 21.776,19.216 21.779 C 20.640 21.783,21.780 20.655,21.780 19.243 L 21.780 18.992 20.554 17.113 C 19.880 16.080,19.305 15.205,19.278 15.168 C 19.233 15.107,19.108 15.284,17.956 17.049 M19.724 18.750 L 20.173 19.443 20.113 19.599 C 20.041 19.789,19.848 19.994,19.642 20.100 C 19.460 20.193,19.124 20.208,18.904 20.133 C 18.708 20.065,18.424 19.792,18.351 19.601 L 18.291 19.446 18.761 18.726 C 19.020 18.331,19.242 18.019,19.254 18.033 C 19.266 18.047,19.478 18.370,19.724 18.750 " stroke="none" fill-rule="evenodd" fill="black"></path></svg>