<svg width="24" height="22" viewBox="0 0 24 22" fill="none" xmlns="http://www.w3.org/2000/svg"><path d="M4.240 0.527 C 3.706 0.603,3.121 0.873,2.720 1.228 C 2.490 1.431,1.960 1.973,1.960 2.005 C 1.960 2.015,2.213 2.263,2.522 2.556 L 3.085 3.090 3.452 2.733 C 3.884 2.312,4.018 2.224,4.363 2.136 C 5.034 1.964,5.750 2.307,6.044 2.940 C 6.105 3.072,6.168 3.268,6.183 3.376 C 6.209 3.558,6.205 3.571,6.136 3.543 C 6.094 3.526,5.917 3.476,5.742 3.432 C 5.334 3.327,4.676 3.346,4.280 3.474 C 3.638 3.681,3.014 4.214,2.725 4.803 C 2.483 5.297,2.428 5.560,2.424 6.240 L 2.420 6.820 3.220 6.820 L 4.020 6.820 4.040 6.240 C 4.058 5.729,4.071 5.643,4.150 5.516 C 4.379 5.148,4.705 4.961,5.122 4.960 C 5.557 4.960,5.868 5.158,6.092 5.575 C 6.180 5.740,6.180 5.741,6.180 8.195 L 6.180 10.649 5.700 10.818 C 4.174 11.354,2.852 12.117,1.640 13.162 L 1.202 13.540 1.201 14.670 L 1.200 15.800 2.000 15.800 L 2.800 15.800 2.801 15.030 L 2.802 14.260 3.083 14.040 C 5.538 12.120,8.776 11.325,11.955 11.862 C 13.754 12.165,15.501 12.932,16.917 14.040 L 17.198 14.260 17.199 15.030 L 17.200 15.800 18.000 15.800 L 18.800 15.800 18.800 14.682 L 18.800 13.563 18.608 13.383 C 16.014 10.957,12.253 9.765,8.508 10.183 C 8.226 10.214,7.951 10.251,7.898 10.264 L 7.800 10.289 7.800 8.092 C 7.800 5.650,7.802 5.633,8.059 5.332 C 8.554 4.753,9.488 4.862,9.853 5.540 C 9.926 5.675,9.942 5.788,9.960 6.260 L 9.980 6.820 10.780 6.820 L 11.580 6.820 11.572 6.257 C 11.564 5.603,11.498 5.269,11.300 4.861 C 10.950 4.140,10.276 3.600,9.500 3.417 C 9.119 3.328,8.398 3.357,8.063 3.476 C 7.933 3.522,7.817 3.551,7.805 3.539 C 7.769 3.502,7.874 3.079,7.967 2.886 C 8.094 2.624,8.361 2.374,8.672 2.227 C 8.907 2.116,8.981 2.101,9.280 2.101 C 9.781 2.101,10.060 2.242,10.542 2.737 L 10.903 3.109 11.476 2.550 L 12.049 1.991 11.655 1.593 C 11.438 1.374,11.131 1.108,10.974 1.003 C 9.826 0.230,8.247 0.348,7.224 1.284 L 7.000 1.488 6.780 1.287 C 6.343 0.887,5.740 0.606,5.145 0.523 C 4.790 0.474,4.607 0.475,4.240 0.527 M18.609 1.081 C 17.650 1.332,16.868 2.132,16.614 3.120 C 16.457 3.727,16.558 4.496,16.871 5.098 C 17.094 5.526,17.637 6.053,18.080 6.271 C 18.726 6.587,19.428 6.654,20.094 6.461 C 20.507 6.341,20.616 6.289,20.940 6.060 C 21.425 5.717,21.807 5.207,21.989 4.663 C 22.084 4.376,22.096 4.278,22.098 3.780 C 22.100 3.294,22.088 3.183,22.005 2.940 C 21.846 2.469,21.656 2.168,21.284 1.799 C 20.899 1.417,20.474 1.173,20.000 1.062 C 19.633 0.976,18.973 0.985,18.609 1.081 M19.872 2.722 C 20.152 2.862,20.291 3.010,20.431 3.314 C 20.516 3.499,20.527 3.571,20.512 3.834 C 20.483 4.314,20.274 4.639,19.865 4.841 C 19.331 5.103,18.691 4.944,18.367 4.469 C 18.207 4.233,18.160 4.071,18.160 3.753 C 18.160 3.353,18.306 3.057,18.621 2.816 C 18.822 2.663,19.022 2.604,19.344 2.602 C 19.582 2.600,19.666 2.619,19.872 2.722 M3.867 17.347 C 3.852 17.361,3.840 17.457,3.840 17.560 C 3.840 17.849,3.699 18.335,3.511 18.694 C 3.311 19.076,2.834 19.581,2.470 19.795 C 2.153 19.981,1.633 20.153,1.289 20.185 L 1.000 20.211 1.000 21.006 L 1.000 21.800 1.170 21.800 C 1.446 21.800,2.040 21.690,2.382 21.577 C 3.144 21.324,3.942 20.783,4.423 20.193 L 4.673 19.886 4.781 20.042 C 4.935 20.263,5.537 20.835,5.820 21.026 C 7.582 22.222,9.967 22.002,11.462 20.506 C 11.641 20.327,11.835 20.117,11.894 20.040 L 12.000 19.900 12.106 20.040 C 12.165 20.117,12.359 20.327,12.538 20.506 C 14.033 22.001,16.419 22.221,18.180 21.026 C 18.463 20.835,19.065 20.263,19.219 20.042 L 19.327 19.886 19.577 20.193 C 20.059 20.784,20.869 21.334,21.619 21.579 C 21.965 21.691,22.558 21.800,22.830 21.800 L 23.000 21.800 23.000 21.006 L 23.000 20.211 22.722 20.186 C 21.394 20.062,20.284 18.952,20.166 17.629 L 20.140 17.340 19.336 17.329 L 18.532 17.318 18.507 17.615 C 18.379 19.122,17.023 20.283,15.501 20.188 C 14.779 20.143,14.202 19.882,13.676 19.361 C 13.163 18.852,12.885 18.285,12.818 17.609 L 12.790 17.320 12.004 17.320 L 11.218 17.320 11.170 17.671 C 11.074 18.377,10.835 18.855,10.324 19.361 C 9.949 19.732,9.626 19.928,9.140 20.079 C 8.576 20.254,7.841 20.221,7.267 19.995 C 6.303 19.615,5.570 18.631,5.491 17.610 L 5.468 17.320 4.681 17.320 C 4.248 17.320,3.881 17.332,3.867 17.347 " fill="#686E80" stroke="none" fill-rule="evenodd"></path></svg>