<svg width="22" height="17" viewBox="0 0 22 17" fill="none" xmlns="http://www.w3.org/2000/svg"><path d="M7.268 0.277 C 6.376 0.440,5.608 0.843,4.968 1.484 C 4.591 1.860,4.366 2.181,4.128 2.679 C 3.133 4.758,3.984 7.264,6.044 8.318 C 7.486 9.056,9.175 8.931,10.498 7.990 C 12.605 6.490,12.896 3.441,11.110 1.562 C 10.463 0.880,9.639 0.438,8.713 0.277 C 8.323 0.209,7.640 0.209,7.268 0.277 M14.007 0.998 L 14.007 1.787 14.268 1.813 C 15.363 1.921,16.339 2.748,16.612 3.798 C 16.708 4.167,16.716 4.783,16.631 5.152 C 16.552 5.492,16.323 5.945,16.098 6.207 C 15.572 6.821,15.030 7.103,14.181 7.207 L 14.007 7.228 14.007 8.014 L 14.007 8.800 14.162 8.800 C 14.248 8.800,14.470 8.775,14.655 8.745 C 16.055 8.518,17.227 7.654,17.840 6.398 C 18.085 5.896,18.203 5.490,18.264 4.940 C 18.353 4.123,18.212 3.369,17.820 2.582 C 17.146 1.228,15.804 0.329,14.309 0.230 L 14.007 0.210 14.007 0.998 M8.431 1.836 C 9.005 1.929,9.475 2.173,9.904 2.600 C 10.241 2.937,10.486 3.341,10.601 3.752 C 10.711 4.142,10.719 4.842,10.619 5.207 C 10.366 6.125,9.629 6.862,8.707 7.117 C 8.311 7.226,7.695 7.227,7.284 7.117 C 6.377 6.877,5.580 6.059,5.369 5.152 C 5.230 4.550,5.324 3.761,5.595 3.268 C 6.180 2.204,7.280 1.649,8.431 1.836 M6.508 10.288 C 4.419 10.504,2.547 11.107,0.596 12.194 L 0.220 12.404 0.220 14.599 L 0.220 16.793 8.012 16.793 L 15.803 16.793 15.803 14.616 C 15.803 12.919,15.793 12.431,15.758 12.402 C 15.732 12.382,15.450 12.223,15.130 12.050 C 13.262 11.036,11.508 10.494,9.426 10.284 C 8.762 10.217,7.173 10.219,6.508 10.288 M17.691 10.720 C 17.611 10.961,17.319 12.197,17.337 12.215 C 17.351 12.227,17.543 12.290,17.765 12.355 C 18.352 12.525,19.083 12.807,19.680 13.092 L 20.203 13.341 20.203 14.279 L 20.203 15.217 18.847 15.217 L 17.490 15.217 17.490 16.005 L 17.490 16.793 19.635 16.793 L 21.780 16.793 21.780 14.599 L 21.780 12.405 21.276 12.125 C 20.185 11.521,19.116 11.075,18.017 10.766 C 17.799 10.704,17.701 10.690,17.691 10.720 M9.179 11.861 C 10.432 11.972,11.513 12.217,12.662 12.650 C 13.100 12.815,13.813 13.133,14.034 13.263 L 14.190 13.354 14.190 14.285 L 14.190 15.217 7.993 15.217 L 1.797 15.217 1.797 14.279 L 1.797 13.341 2.356 13.074 C 4.472 12.064,6.794 11.651,9.179 11.861 " stroke="none" fill-rule="evenodd" fill="black"></path></svg>