<svg width="24" height="22" viewBox="0 0 24 22" fill="none" xmlns="http://www.w3.org/2000/svg"><path d="M6.302 0.242 C 5.071 0.435,4.047 1.203,3.522 2.326 C 2.759 3.961,3.323 5.922,4.840 6.903 C 5.434 7.287,6.097 7.480,6.820 7.480 C 9.213 7.480,10.929 5.257,10.342 2.919 C 10.244 2.530,9.878 1.820,9.626 1.534 C 9.056 0.882,8.477 0.519,7.686 0.316 C 7.330 0.225,6.644 0.188,6.302 0.242 M16.711 0.260 C 15.001 0.585,13.784 1.950,13.692 3.648 C 13.599 5.349,14.635 6.818,16.301 7.346 C 16.635 7.451,16.706 7.459,17.320 7.459 C 17.934 7.459,18.005 7.451,18.339 7.346 C 18.778 7.207,19.141 7.027,19.464 6.789 C 21.088 5.592,21.437 3.359,20.259 1.698 C 19.798 1.049,19.002 0.517,18.193 0.319 C 17.749 0.210,17.108 0.185,16.711 0.260 M7.332 1.860 C 7.699 1.955,7.960 2.111,8.263 2.416 C 8.722 2.876,8.923 3.420,8.865 4.045 C 8.733 5.463,7.204 6.322,5.926 5.696 C 4.918 5.202,4.486 3.976,4.965 2.968 C 5.121 2.641,5.562 2.181,5.871 2.025 C 6.308 1.803,6.872 1.740,7.332 1.860 M17.768 1.844 C 18.456 1.987,19.077 2.562,19.285 3.249 C 19.356 3.482,19.367 3.596,19.351 3.954 C 19.323 4.558,19.168 4.909,18.752 5.312 C 18.327 5.725,17.892 5.899,17.300 5.893 C 16.688 5.887,16.261 5.699,15.830 5.247 C 15.447 4.845,15.281 4.420,15.280 3.834 C 15.280 3.403,15.380 3.059,15.603 2.724 C 16.081 2.009,16.920 1.668,17.768 1.844 M1.018 8.510 C 1.032 8.570,1.660 11.212,2.415 14.380 L 3.788 20.140 4.044 20.349 C 4.340 20.589,5.022 20.954,5.400 21.072 C 5.936 21.240,6.088 21.260,6.820 21.260 C 7.552 21.260,7.704 21.240,8.240 21.072 C 8.617 20.954,9.300 20.590,9.597 20.349 L 9.854 20.140 11.246 14.300 C 12.012 11.088,12.639 8.447,12.639 8.430 C 12.640 8.414,10.020 8.400,6.817 8.400 L 0.994 8.400 1.018 8.510 M16.785 8.441 C 16.073 8.522,15.370 8.784,14.775 9.192 C 14.575 9.329,14.383 9.472,14.348 9.511 C 14.309 9.554,13.754 11.807,12.902 15.384 C 12.142 18.575,11.520 21.207,11.520 21.233 C 11.520 21.269,12.907 21.280,17.320 21.280 C 22.048 21.280,23.120 21.270,23.120 21.228 C 23.120 21.200,22.499 18.567,21.740 15.378 L 20.360 9.580 20.210 9.447 C 19.710 9.004,18.938 8.636,18.225 8.500 C 17.834 8.426,17.164 8.399,16.785 8.441 M10.624 10.070 C 10.612 10.109,10.116 12.183,9.521 14.680 C 8.721 18.038,8.422 19.234,8.370 19.275 C 8.242 19.375,7.824 19.549,7.540 19.620 C 7.167 19.714,6.477 19.715,6.100 19.621 C 5.835 19.556,5.261 19.306,5.219 19.238 C 5.208 19.221,4.713 17.167,4.119 14.673 C 3.525 12.180,3.029 10.109,3.016 10.070 C 2.996 10.004,3.195 10.000,6.820 10.000 C 10.445 10.000,10.644 10.004,10.624 10.070 M18.100 10.097 C 18.232 10.132,18.474 10.228,18.637 10.310 L 18.935 10.460 20.027 15.040 C 20.627 17.559,21.119 19.643,21.119 19.670 C 21.120 19.710,20.334 19.720,17.320 19.720 C 14.306 19.720,13.520 19.710,13.521 19.670 C 13.522 19.643,14.014 17.562,14.614 15.046 L 15.704 10.471 15.862 10.375 C 16.074 10.247,16.404 10.124,16.720 10.057 C 17.045 9.989,17.767 10.009,18.100 10.097 " stroke="none" fill-rule="evenodd" fill="black"></path></svg>